<svg version="1.1" id="Layer_1" xmlns="http://www.w3.org/2000/svg" xmlns:xlink="http://www.w3.org/1999/xlink" x="0px" y="0px"
	 width="100%" viewBox="0 0 1254 1254" enable-background="new 0 0 1254 1254" xml:space="preserve">
<path fill="#FDFDFD" opacity="1.000000" stroke="none" 
	d="
M693.000000,1255.000000 
	C462.000000,1255.000000 231.500000,1255.000000 1.000000,1255.000000 
	C1.000000,837.000000 1.000000,419.000000 1.000000,1.000000 
	C419.000000,1.000000 837.000000,1.000000 1255.000000,1.000000 
	C1255.000000,419.000000 1255.000000,837.000000 1255.000000,1255.000000 
	C1067.833374,1255.000000 880.666687,1255.000000 693.000000,1255.000000 
M1218.938110,812.500000 
	C1218.938721,622.349121 1218.844238,432.198212 1219.009033,242.047516 
	C1219.048706,196.179688 1206.401123,154.446671 1178.731201,117.966103 
	C1137.841553,64.056046 1083.531128,33.541939 1015.377686,33.369316 
	C757.567200,32.716312 499.754150,33.107464 241.942032,33.115860 
	C215.800262,33.116711 190.650787,38.165058 166.476761,48.102268 
	C88.263885,80.253197 36.792660,155.842743 36.793625,238.539124 
	C36.796638,497.517181 36.834625,756.495239 36.732231,1015.473267 
	C36.723114,1038.537354 40.372795,1060.805542 47.722103,1082.642212 
	C75.242950,1164.413818 155.289597,1222.544067 241.649124,1222.586914 
	C498.461060,1222.714233 755.273071,1222.630859 1012.085083,1222.622437 
	C1052.116699,1222.621216 1089.449707,1212.379272 1122.678467,1190.183594 
	C1184.547241,1148.857178 1218.280151,1091.226318 1218.831177,1015.982605 
	C1219.325317,948.491760 1218.938354,880.994446 1218.938110,812.500000 
z"/>
<path fill="#030F44" opacity="1.000000" stroke="none" 
	d="
M1218.939087,813.000000 
	C1218.938354,880.994446 1219.325317,948.491760 1218.831177,1015.982605 
	C1218.280151,1091.226318 1184.547241,1148.857178 1122.678467,1190.183594 
	C1089.449707,1212.379272 1052.116699,1222.621216 1012.085083,1222.622437 
	C755.273071,1222.630859 498.461060,1222.714233 241.649124,1222.586914 
	C155.289597,1222.544067 75.242950,1164.413818 47.722103,1082.642212 
	C40.372795,1060.805542 36.723114,1038.537354 36.732231,1015.473267 
	C36.834625,756.495239 36.796638,497.517181 36.793625,238.539124 
	C36.792660,155.842743 88.263885,80.253197 166.476761,48.102268 
	C190.650787,38.165058 215.800262,33.116711 241.942032,33.115860 
	C499.754150,33.107464 757.567200,32.716312 1015.377686,33.369316 
	C1083.531128,33.541939 1137.841553,64.056046 1178.731201,117.966103 
	C1206.401123,154.446671 1219.048706,196.179688 1219.009033,242.047516 
	C1218.844238,432.198212 1218.938721,622.349121 1218.939087,813.000000 
M836.000000,959.000000 
	C836.000000,959.000000 836.009094,959.006714 836.647156,959.033569 
	C837.430420,958.716492 838.213623,958.399414 839.752319,958.078491 
	C842.500977,957.093872 845.249634,956.109253 848.772827,955.119507 
	C854.522156,952.770691 860.271484,950.421875 866.621887,948.078247 
	C867.486145,947.603271 868.350342,947.128357 869.954041,946.513367 
	C875.758057,943.400024 881.562073,940.286621 888.033508,937.054871 
	C891.064697,935.155090 894.095947,933.255249 897.744873,931.190857 
	C898.911865,930.323059 900.078857,929.455200 901.847961,928.364624 
	C902.324097,927.951477 902.800171,927.538391 903.825623,926.779663 
	C905.921265,925.181824 908.016846,923.583984 910.799805,921.739441 
	C911.866882,920.497925 912.933960,919.256409 914.716064,918.119446 
	C915.162659,917.919373 915.700684,917.818787 916.042542,917.504822 
	C924.913818,909.355347 933.867737,901.292114 942.596191,892.991821 
	C957.524353,878.795959 968.985657,861.972900 979.624695,843.686096 
	C983.366455,836.412842 987.453308,829.294312 990.792908,821.840881 
	C1009.837341,779.337219 1018.649475,735.005005 1011.937439,688.556580 
	C1003.232849,628.319275 975.359558,578.853577 926.143005,542.295959 
	C890.978271,516.175842 851.564514,502.610992 807.418945,502.815338 
	C738.280273,503.135376 669.139221,502.923218 599.999146,502.945465 
	C585.754333,502.950043 575.092651,510.629486 571.515015,523.410767 
	C568.076294,535.695862 573.618713,549.138428 585.299011,555.952515 
	C619.226501,575.745117 653.233398,595.401428 687.189758,615.144653 
	C694.131470,619.180664 701.565796,621.025757 709.581909,621.012817 
	C735.571777,620.970947 761.570129,620.632507 787.549561,621.167603 
	C813.252441,621.696960 833.822144,632.640503 847.849487,654.468628 
	C859.070068,671.929199 861.487183,690.966614 855.816589,711.641907 
	C852.162842,723.365601 845.458557,733.205139 836.624756,742.395874 
	C836.097229,742.970581 835.569641,743.545288 834.508423,744.279968 
	C833.655701,745.133301 832.803040,745.986633 832.032349,746.888428 
	C832.032349,746.888428 832.017273,746.982483 831.445312,747.024231 
	C830.960144,747.362610 830.475037,747.701050 829.429871,748.077271 
	C829.196777,748.359314 828.963623,748.641357 828.337830,748.974792 
	C828.059998,749.078796 827.905518,749.278259 827.224060,749.799622 
	C826.335083,750.485962 825.446045,751.172241 824.237122,751.809692 
	C824.237122,751.809692 823.997742,752.027527 823.419800,752.050049 
	C823.175598,752.332764 822.931396,752.615479 822.089294,753.022888 
	C821.048767,753.648743 820.008179,754.274658 818.255310,754.949951 
	C815.782776,756.025085 813.310242,757.100159 810.068054,758.230774 
	C808.373779,758.798523 806.679565,759.366272 804.160828,759.906128 
	C798.215942,760.523926 792.272644,761.659180 786.325928,761.677307 
	C739.700012,761.819275 693.073547,761.730103 646.447205,761.752319 
	C633.964783,761.758301 621.482422,761.902649 608.079346,761.789673 
	C574.009827,761.774902 539.940308,761.737976 505.870819,761.757080 
	C493.247192,761.764160 480.623596,761.903137 467.261261,761.795288 
	C466.507751,761.860352 465.754272,761.925415 464.213562,761.800354 
	C463.141968,761.865356 462.070374,761.930359 460.212463,761.805847 
	C459.141815,761.866577 458.071167,761.927307 456.080109,761.792542 
	C433.386871,761.856628 410.693665,761.920776 387.139771,761.799927 
	C385.093170,761.865723 383.046600,761.931519 380.083618,761.805847 
	C377.422974,761.791748 374.762115,761.749023 372.101715,761.768188 
	C359.085083,761.861938 349.831787,770.936157 349.859894,783.560669 
	C349.886200,795.380249 359.320068,804.250061 371.995331,804.261047 
	C407.418030,804.291870 442.841888,804.442200 478.262543,804.176025 
	C486.976166,804.110596 494.289703,806.035706 500.009430,813.648010 
	C500.589264,814.469116 501.169128,815.290222 501.833862,816.832397 
	C502.455292,818.891235 503.076721,820.950012 503.545868,823.660095 
	C503.657379,824.312866 503.768890,824.965576 503.601898,825.953979 
	C503.463226,826.257751 503.515961,826.523254 503.401703,827.542664 
	C503.301605,828.694824 503.201477,829.846924 502.692657,831.582642 
	C501.477875,833.923767 500.263092,836.264893 498.523865,838.865356 
	C497.011414,840.233337 495.498962,841.601257 493.309143,843.085266 
	C491.872864,843.769470 490.436584,844.453674 488.176453,845.192810 
	C484.708252,845.401367 481.240143,845.789734 477.771820,845.791748 
	C416.165558,845.828125 354.559296,845.810425 292.953003,845.833008 
	C288.968262,845.834473 284.983612,846.067871 280.262787,846.115295 
	C266.976410,849.728394 260.736786,860.672241 265.122620,872.670166 
	C268.099060,880.812622 274.963593,885.358093 284.637512,885.364441 
	C332.625000,885.395874 380.612488,885.370544 428.599945,885.408508 
	C433.399933,885.412292 438.199646,885.707886 443.623962,885.928894 
	C450.700623,887.225037 455.296722,891.400757 457.948425,898.892029 
	C462.359619,914.612000 453.302612,926.727173 437.085297,926.741516 
	C401.436371,926.773071 365.787201,926.726074 330.138855,926.880554 
	C326.748657,926.895203 323.060669,927.459778 320.033234,928.881348 
	C311.097931,933.076904 306.990662,942.288269 309.189697,951.800659 
	C311.286316,960.870178 319.743073,967.258118 329.947021,967.260986 
	C391.417084,967.278259 452.887146,967.282227 514.357178,967.230652 
	C540.505493,967.208740 566.653748,967.041565 593.588684,967.217346 
	C608.392456,967.136230 623.196228,967.055115 638.782898,967.188965 
	C639.855286,967.118591 640.927612,967.048279 642.916321,967.195923 
	C655.277527,967.121460 667.638794,967.046997 680.915894,967.192322 
	C688.277283,967.129028 695.638611,967.065796 703.879822,967.217834 
	C706.586548,967.138550 709.293274,967.059265 712.914856,967.197754 
	C718.609924,967.130188 724.304932,967.062622 730.895142,967.214111 
	C734.264221,967.142273 737.633362,967.070374 741.919067,967.212280 
	C756.520020,967.211548 771.121765,967.294739 785.721436,967.156067 
	C789.817505,967.117188 793.907288,966.425781 798.876770,966.166321 
	C802.586670,965.656067 806.296570,965.145813 810.772034,964.747070 
	C811.506653,964.550964 812.241333,964.354919 813.693298,964.340881 
	C816.515991,963.724670 819.338623,963.108521 823.076477,962.479126 
	C824.833923,962.007507 826.591309,961.535950 828.406677,961.281189 
	C828.406677,961.281189 828.648682,961.003662 829.161377,960.986450 
	C829.461670,960.832214 829.761902,960.678040 830.954285,960.521240 
	C832.373047,960.085999 833.791748,959.650818 835.494324,959.405029 
	C835.757080,959.392090 835.927246,959.259827 836.000000,959.000000 
M670.740906,644.016907 
	C669.203979,643.676331 667.667542,643.041809 666.130005,643.038757 
	C637.667542,642.982727 609.204956,642.987427 580.742432,643.044739 
	C579.168213,643.047913 577.595215,643.619080 575.163879,644.061462 
	C512.265137,639.502502 463.567688,576.390747 473.550018,512.370178 
	C482.604431,454.300598 529.807068,414.003479 588.529419,414.029724 
	C696.689209,414.078064 804.848999,413.994720 913.008667,414.101379 
	C923.264526,414.111511 931.547852,410.500580 937.965393,402.748932 
	C940.378845,399.833832 942.058472,396.303619 944.017090,393.020721 
	C968.506409,351.973175 993.016174,310.937866 1017.446411,269.855164 
	C1023.867615,259.056946 1020.878540,251.478531 1008.710571,246.939087 
	C1006.824768,246.626419 1004.939087,246.041550 1003.053101,246.040359 
	C930.567505,245.994919 858.081909,246.002731 785.596313,246.003860 
	C716.610046,246.004944 647.623718,245.993011 578.637512,246.079514 
	C576.766602,246.081863 574.896912,247.148911 572.172363,248.008530 
	C566.865234,248.497040 561.527466,248.767609 556.255554,249.507278 
	C494.000671,258.241699 441.562103,286.023224 398.646332,331.690063 
	C360.988281,371.762115 338.481201,419.644989 327.955505,473.287903 
	C318.824707,519.821777 321.534943,565.495178 339.816864,609.686157 
	C354.800079,645.903564 377.015869,676.524658 410.050568,698.448364 
	C423.634857,707.463562 438.542542,712.876343 455.082031,712.877380 
	C557.397034,712.883606 659.712097,712.873962 762.027100,712.865234 
	C763.192627,712.865173 764.393311,712.977844 765.517395,712.746155 
	C769.640991,711.896179 774.016357,711.073059 775.090698,706.091064 
	C776.158020,701.141724 772.532959,699.081360 768.922241,697.023865 
	C745.491150,683.671997 722.127136,670.202148 698.671448,656.893799 
	C689.875793,651.903320 681.353394,646.188965 670.740906,644.016907 
M231.127808,879.559937 
	C236.804504,872.082397 237.645050,863.966797 233.593155,855.627747 
	C229.803650,847.828735 223.192566,843.581116 214.556870,843.092041 
	C203.868896,842.486694 194.490112,849.637268 191.574509,860.156006 
	C188.868683,869.917969 193.226288,880.304260 202.152695,885.369019 
	C211.501984,890.673706 222.647171,888.626526 231.127808,879.559937 
z"/>
<path fill="#FDFDFD" opacity="1.000000" stroke="none" 
	d="
M1008.975037,247.666000 
	C1020.878540,251.478531 1023.867615,259.056946 1017.446411,269.855164 
	C993.016174,310.937866 968.506409,351.973175 944.017090,393.020721 
	C942.058472,396.303619 940.378845,399.833832 937.965393,402.748932 
	C931.547852,410.500580 923.264526,414.111511 913.008667,414.101379 
	C804.848999,413.994720 696.689209,414.078064 588.529419,414.029724 
	C529.807068,414.003479 482.604431,454.300598 473.550018,512.370178 
	C463.567688,576.390747 512.265137,639.502502 576.017761,644.110962 
	C579.853210,644.341431 582.834412,644.673523 585.816345,644.679810 
	C614.203186,644.739685 642.590210,644.744263 670.977173,644.764709 
	C681.353394,646.188965 689.875793,651.903320 698.671448,656.893799 
	C722.127136,670.202148 745.491150,683.671997 768.922241,697.023865 
	C772.532959,699.081360 776.158020,701.141724 775.090698,706.091064 
	C774.016357,711.073059 769.640991,711.896179 765.517395,712.746155 
	C764.393311,712.977844 763.192627,712.865173 762.027100,712.865234 
	C659.712097,712.873962 557.397034,712.883606 455.082031,712.877380 
	C438.542542,712.876343 423.634857,707.463562 410.050568,698.448364 
	C377.015869,676.524658 354.800079,645.903564 339.816864,609.686157 
	C321.534943,565.495178 318.824707,519.821777 327.955505,473.287903 
	C338.481201,419.644989 360.988281,371.762115 398.646332,331.690063 
	C441.562103,286.023224 494.000671,258.241699 556.255554,249.507278 
	C561.527466,248.767609 566.865234,248.497040 573.061401,247.932770 
	C578.777405,247.772659 583.604370,247.616776 588.431396,247.614563 
	C675.504822,247.574585 762.578247,247.531540 849.651672,247.535797 
	C902.759460,247.538391 955.867249,247.619934 1008.975037,247.666000 
z"/>
<path fill="#FD7B02" opacity="1.000000" stroke="none" 
	d="
M856.187561,711.003784 
	C861.487183,690.966614 859.070068,671.929199 847.849487,654.468628 
	C833.822144,632.640503 813.252441,621.696960 787.549561,621.167603 
	C761.570129,620.632507 735.571777,620.970947 709.581909,621.012817 
	C701.565796,621.025757 694.131470,619.180664 687.189758,615.144653 
	C653.233398,595.401428 619.226501,575.745117 585.299011,555.952515 
	C573.618713,549.138428 568.076294,535.695862 571.515015,523.410767 
	C575.092651,510.629486 585.754333,502.950043 599.999146,502.945465 
	C669.139221,502.923218 738.280273,503.135376 807.418945,502.815338 
	C851.564514,502.610992 890.978271,516.175842 926.143005,542.295959 
	C975.359558,578.853577 1003.232849,628.319275 1011.937439,688.556580 
	C1018.649475,735.005005 1009.837341,779.337219 990.792908,821.840881 
	C987.453308,829.294312 983.366455,836.412842 979.323059,843.446899 
	C979.149475,840.559937 978.838623,837.792419 979.519470,835.295349 
	C980.324524,832.342957 979.496216,831.065247 976.807922,830.026489 
	C971.860046,828.114563 970.763916,825.151794 972.907166,820.242493 
	C973.705566,818.413574 974.859253,816.719421 975.491760,814.842834 
	C976.655884,811.388672 976.039795,808.584290 971.994812,807.497314 
	C970.744568,807.161438 969.515625,806.746155 968.237000,806.355042 
	C968.237000,805.325256 968.266785,804.511292 968.232178,803.700073 
	C967.983154,797.861084 967.876648,792.009521 967.382446,786.190918 
	C967.198547,784.025208 966.098389,781.937317 965.343506,779.588440 
	C962.188660,780.149963 959.593140,778.176270 958.127502,774.655029 
	C956.603210,770.992798 955.196350,767.263000 954.049377,763.468628 
	C953.222839,760.734192 951.676270,759.668091 948.934326,759.991943 
	C945.289490,760.422363 943.664368,758.825928 943.959839,755.115417 
	C944.058533,753.875793 943.690857,752.599121 943.603943,751.890869 
	C937.772705,749.790649 932.640503,747.242188 927.220642,746.221252 
	C923.198792,745.463623 920.759766,743.677917 919.723389,740.256592 
	C918.493103,736.195007 916.270752,734.568298 912.084167,734.893982 
	C910.859009,734.989319 908.721436,734.148254 908.394897,733.237244 
	C906.396667,727.661072 904.576111,721.992310 903.258972,716.225769 
	C903.001099,715.096863 905.287964,713.454773 906.263000,711.959290 
	C907.513489,710.041199 908.815247,708.110413 909.676025,706.013123 
	C909.927246,705.400940 908.678650,703.373230 908.239441,703.411072 
	C905.892029,703.613098 902.238159,703.517456 901.481140,704.881531 
	C896.857361,713.213562 889.646790,708.617798 883.299683,709.295959 
	C886.897766,704.500000 892.737915,701.286682 892.668884,693.497864 
	C888.440735,694.780701 884.413879,694.976562 881.797180,696.997925 
	C875.196350,702.096985 869.230652,708.018250 863.122314,713.509521 
	C860.805176,712.672302 858.496399,711.838074 856.187561,711.003784 
z"/>
<path fill="#FD6602" opacity="1.000000" stroke="none" 
	d="
M830.062195,960.523804 
	C829.761902,960.678040 829.461670,960.832214 828.855713,960.998535 
	C828.550110,961.010559 828.348755,961.064331 828.348755,961.064331 
	C826.591309,961.535950 824.833923,962.007507 822.456421,962.099731 
	C817.311584,958.568726 815.136475,959.167358 812.975952,964.158875 
	C812.241333,964.354919 811.506653,964.550964 810.396790,964.338318 
	C810.977417,961.693665 811.933228,959.457703 813.372681,956.090515 
	C808.682556,956.090515 804.582458,956.090515 799.718750,956.090515 
	C802.616516,950.673706 800.682190,943.910522 807.977722,942.070435 
	C808.777954,941.868591 808.838379,938.733276 809.241943,936.958496 
	C807.298767,937.163879 805.263245,937.092834 803.453918,937.698242 
	C802.625549,937.975464 802.479553,939.969788 801.606812,940.505188 
	C799.920471,941.539612 797.695190,943.045410 796.128662,942.646423 
	C792.786804,941.795349 789.284424,940.399719 789.054871,935.827637 
	C788.802734,930.803772 787.736877,925.748474 791.102051,921.190063 
	C791.631287,920.473206 791.709473,918.862244 791.261230,918.092773 
	C790.043152,916.001587 782.893799,915.270996 780.848816,916.579285 
	C779.468933,917.462158 777.110718,918.838562 776.396423,918.322876 
	C774.854187,917.209534 773.378845,915.115295 773.130066,913.254700 
	C772.142395,905.867920 769.069458,904.341003 762.279175,907.992249 
	C761.150452,908.599121 758.867798,908.417969 757.921204,907.632812 
	C756.925537,906.807068 756.587585,904.833008 756.519897,903.335388 
	C756.439270,901.553040 757.537048,898.350342 757.112976,898.172363 
	C754.368286,897.020142 751.231873,895.645874 748.444031,896.013550 
	C743.912842,896.611023 742.041992,896.141846 742.173279,891.617737 
	C742.251526,888.922607 744.308716,886.335815 744.733887,883.585571 
	C745.152344,880.879456 745.534180,877.521667 744.317261,875.358093 
	C742.430359,872.003113 741.091797,875.917725 739.468933,876.695312 
	C734.193420,879.223206 729.778320,884.743530 723.205688,881.581055 
	C721.609802,879.267334 720.104797,877.085449 718.475159,874.722778 
	C716.617554,876.706665 715.504395,878.184143 714.099915,879.292664 
	C713.186218,880.013794 711.061707,880.807922 710.836304,880.517212 
	C709.830750,879.220581 709.135254,877.592834 708.705200,875.983887 
	C708.525879,875.312988 709.286987,874.390625 709.655334,873.498047 
	C705.667664,872.780090 702.063477,869.180908 698.485535,873.549927 
	C698.280945,873.799622 697.098816,873.612976 696.674805,873.262573 
	C692.318359,869.661743 688.023499,865.986328 683.718201,862.323853 
	C683.600342,862.223572 683.497131,862.039368 683.487549,861.887878 
	C683.056458,855.035950 675.849854,852.326294 674.143555,845.513611 
	C672.412842,838.603699 670.996643,838.194153 677.518311,833.563538 
	C679.017517,832.499023 680.778931,829.920593 680.416687,828.580200 
	C679.931458,826.784607 677.702209,824.604553 675.860046,824.187500 
	C669.649841,822.781677 668.215332,824.877686 670.400635,831.493164 
	C667.404236,830.224426 664.323547,829.247742 661.599426,827.659546 
	C659.539062,826.458252 656.544250,824.585815 656.404968,822.819702 
	C656.078064,818.673950 653.304443,817.780090 650.591980,816.241699 
	C648.086731,814.820801 644.200317,813.537659 643.627441,811.451111 
	C642.092896,805.862122 637.713623,804.349365 633.622314,801.934387 
	C631.819458,800.870361 630.207397,799.111877 629.120911,797.301331 
	C627.816101,795.127075 627.164124,792.561096 626.037170,789.671631 
	C623.969727,790.648987 622.138184,791.351929 620.469543,792.332275 
	C613.738037,796.287231 606.966919,795.315430 599.943909,793.094543 
	C595.829956,791.793518 591.006348,789.857361 587.283752,790.927124 
	C582.635925,792.262695 579.515686,790.796509 578.169922,787.754883 
	C575.536560,781.802979 571.334900,779.397095 565.307861,778.840454 
	C563.572083,778.680237 561.900635,777.823120 560.336609,777.328735 
	C559.725220,772.572083 558.536499,771.270813 554.055725,770.170593 
	C548.352417,768.770203 539.299805,773.777954 534.654358,781.192810 
	C533.135071,780.364258 531.651123,779.028442 530.013306,778.801208 
	C528.161255,778.544250 525.484802,778.588806 524.356567,779.704956 
	C518.631836,785.367859 513.309143,791.295654 504.963928,793.431885 
	C503.660309,793.765564 502.587738,797.286377 502.451019,799.400879 
	C502.195923,803.346497 502.842773,807.344727 502.755310,811.313110 
	C502.741791,811.924988 500.818665,812.494751 499.778687,813.083984 
	C494.289703,806.035706 486.976166,804.110596 478.262543,804.176025 
	C442.841888,804.442200 407.418030,804.291870 371.995331,804.261047 
	C359.320068,804.250061 349.886200,795.380249 349.859894,783.560669 
	C349.831787,770.936157 359.085083,761.861938 372.101715,761.768188 
	C374.762115,761.749023 377.422974,761.791748 380.588257,762.272644 
	C384.266388,766.138977 385.891052,765.961487 388.000427,761.984924 
	C410.693665,761.920776 433.386871,761.856628 456.600677,762.237549 
	C458.808533,764.680725 460.156525,764.764465 460.998779,761.995300 
	C462.070374,761.930359 463.141968,761.865356 464.656860,762.230530 
	C466.066772,762.434448 467.033386,762.208252 468.000000,761.982056 
	C480.623596,761.903137 493.247192,761.764160 505.870819,761.757080 
	C539.940308,761.737976 574.009827,761.774902 608.571289,762.233276 
	C609.375488,763.784607 609.687744,764.892334 609.603821,766.000671 
	C603.892883,768.215637 598.578125,770.429932 593.263428,772.644226 
	C593.292419,773.082947 593.321472,773.521667 593.350525,773.960388 
	C594.492554,774.056274 595.695923,774.434204 596.766479,774.201355 
	C602.819153,772.884644 608.833435,771.392517 614.879761,770.044922 
	C615.640015,769.875488 616.526672,770.136780 617.328857,770.315186 
	C621.435730,771.228455 625.535767,772.172607 629.631714,773.133667 
	C629.917786,773.200745 630.151489,773.491211 630.577393,773.799194 
	C630.150635,775.048767 629.706787,776.348389 628.871094,778.795532 
	C631.769958,778.649963 634.044189,778.961243 636.039612,778.355042 
	C641.823059,776.598022 642.737427,776.993774 644.144104,782.805420 
	C644.370239,783.739502 644.931396,784.592529 645.337708,785.483093 
	C648.611267,785.629028 651.688477,788.299194 653.726440,787.659363 
	C659.686218,785.788086 663.961609,787.717224 668.859497,790.708313 
	C671.208801,792.142883 673.817322,791.964783 674.240723,795.742432 
	C674.838135,801.072998 679.964600,801.505005 683.812195,802.509277 
	C685.025818,802.826050 686.994568,799.966736 688.722595,798.704651 
	C689.706299,797.986145 690.846741,797.339417 692.013611,797.044067 
	C694.542908,796.403870 697.134521,796.010376 699.947205,795.468567 
	C699.465088,790.300049 702.082825,788.722534 706.614929,788.893494 
	C707.756042,788.936584 708.913025,787.628174 710.120850,787.065613 
	C711.619202,786.367859 713.329895,785.110474 714.660828,785.403442 
	C715.651184,785.621460 716.803162,787.919739 716.804504,789.292542 
	C716.808777,793.581482 716.374695,797.878479 715.938477,802.154785 
	C715.833984,803.179260 715.265137,804.803833 714.565247,805.016113 
	C709.620239,806.515930 709.083862,810.640625 708.179993,814.738525 
	C706.878418,820.638855 707.422302,821.484680 713.487366,820.898743 
	C714.746826,820.777100 715.899719,819.417908 717.074280,818.590210 
	C718.226440,817.778381 719.255493,816.742859 720.495422,816.115051 
	C722.794312,814.951111 725.209106,814.016479 727.572693,812.979614 
	C730.789246,811.568604 734.002930,810.151184 737.217834,808.736450 
	C736.388428,814.134521 737.714478,818.763428 732.151367,822.060852 
	C725.608887,825.939026 725.695129,829.835022 729.238586,836.901184 
	C733.370422,836.284485 737.456238,828.948914 741.097229,835.682617 
	C743.449646,835.275574 745.195618,834.973389 746.941650,834.671265 
	C746.457520,836.454285 745.988281,838.241577 745.485718,840.019348 
	C744.803040,842.434204 743.385620,844.938660 743.696167,847.211731 
	C743.851868,848.351257 747.323853,850.048889 748.959290,849.735657 
	C751.350708,849.277710 753.439331,847.238708 756.135559,845.578979 
	C756.475891,846.356262 757.273132,847.547363 757.499268,848.838440 
	C757.859375,850.894714 757.282959,853.289062 758.135803,855.036072 
	C758.989502,856.785095 760.923645,858.338989 762.751709,859.144592 
	C763.711426,859.567444 765.850098,858.566467 766.765808,857.572327 
	C768.567627,855.616211 769.887573,853.216248 771.962463,850.189392 
	C772.447632,852.107422 773.121643,853.229126 772.890747,854.114746 
	C771.584412,859.124084 769.794800,864.021057 768.736877,869.075012 
	C768.285522,871.230896 768.871216,873.799377 769.662354,875.929077 
	C770.006409,876.855347 772.199646,877.834045 773.302246,877.601257 
	C776.662720,876.891968 779.852661,875.023071 783.203979,874.743225 
	C785.511597,874.550415 788.668152,875.626587 790.162964,877.288879 
	C791.461670,878.732910 791.496521,881.885071 791.123657,884.121216 
	C790.619690,887.143005 789.205261,890.015625 788.153320,892.942200 
	C787.625549,894.410583 787.044189,895.860046 786.471558,897.312012 
	C785.848572,898.891785 784.976807,900.428101 784.719604,902.063049 
	C784.645752,902.532837 786.322998,903.278076 787.197327,903.897095 
	C788.104553,902.464417 788.964050,900.998413 789.933228,899.609009 
	C790.786987,898.385193 792.207520,896.093079 792.616943,896.250610 
	C796.499268,897.744202 798.542725,895.481812 801.027527,893.182800 
	C802.118530,892.173340 804.801575,891.721985 806.121643,892.354004 
	C809.301514,893.876770 812.739014,895.678833 814.868042,898.334045 
	C816.750610,900.681824 817.452942,904.290955 817.756531,907.432251 
	C817.875366,908.662354 815.313293,910.018738 814.305176,911.538391 
	C813.660522,912.510010 813.625610,913.885986 813.317383,915.080627 
	C814.648071,915.088623 816.682312,915.654541 817.192322,915.011597 
	C819.929565,911.560669 823.600342,911.630432 827.215881,912.104797 
	C829.191589,912.364014 831.027222,913.691467 832.926025,914.537231 
	C831.713318,916.473450 830.941040,919.227661 829.192627,920.168823 
	C825.945740,921.916992 825.556580,924.378479 826.110901,927.242615 
	C826.721008,930.394714 827.955444,933.139038 831.738342,934.079163 
	C833.635803,934.550781 836.803650,936.408630 836.692749,937.304626 
	C836.276917,940.662354 835.595642,945.840698 833.464294,946.765503 
	C828.243225,949.031006 827.558472,952.394775 828.044312,957.323975 
	C828.722473,958.094604 829.358765,958.546082 830.005127,959.379395 
	C830.030884,960.015442 830.046509,960.269592 830.062195,960.523804 
z"/>
<path fill="#FD5903" opacity="1.000000" stroke="none" 
	d="
M592.802002,966.940430 
	C566.653748,967.041565 540.505493,967.208740 514.357178,967.230652 
	C452.887146,967.282227 391.417084,967.278259 329.947021,967.260986 
	C319.743073,967.258118 311.286316,960.870178 309.189697,951.800659 
	C306.990662,942.288269 311.097931,933.076904 320.033234,928.881348 
	C323.060669,927.459778 326.748657,926.895203 330.138855,926.880554 
	C365.787201,926.726074 401.436371,926.773071 437.085297,926.741516 
	C453.302612,926.727173 462.359619,914.612000 458.204163,898.440369 
	C463.734894,894.019165 469.372040,890.393555 470.168213,882.852295 
	C470.276550,881.826599 471.961517,880.208313 472.974884,880.162598 
	C478.749634,879.902649 484.542053,880.036499 488.548248,880.036499 
	C492.625427,885.489746 495.790588,889.723145 497.757751,892.354187 
	C504.009613,893.344788 508.564789,894.578735 513.142517,894.668823 
	C519.612488,894.796082 519.844849,894.631165 519.810913,901.103027 
	C522.490173,900.080994 525.010681,899.119568 527.988953,897.983521 
	C528.950378,900.615723 529.435181,903.138489 530.737427,905.125305 
	C531.754944,906.677612 534.254578,908.892517 535.291199,908.527649 
	C541.146912,906.466248 546.744324,907.865540 552.325256,909.084717 
	C554.540405,909.568604 557.053162,910.720032 558.484192,912.382263 
	C562.758484,917.347107 566.530396,918.114563 572.130371,914.382996 
	C577.864075,910.562195 583.411865,911.385803 588.158264,916.762512 
	C589.991455,918.839233 594.192932,918.438477 595.828552,916.077576 
	C596.539001,915.052124 597.304016,913.356873 598.175720,913.268860 
	C602.801575,912.801819 605.575439,910.253601 607.025940,905.663269 
	C621.069336,911.717346 631.170837,921.887573 641.132446,933.013367 
	C639.890869,934.343933 638.362610,935.635681 637.296143,937.235229 
	C636.458008,938.492554 636.190186,940.130066 635.668945,941.598633 
	C637.741333,941.587708 639.938171,941.990601 641.841614,941.418030 
	C643.077209,941.046326 643.884888,939.251770 645.857788,936.967773 
	C646.179199,943.620728 649.423462,946.029053 654.336731,946.862000 
	C654.849487,946.948914 655.675720,949.392517 655.289612,949.858459 
	C653.483215,952.038086 651.487488,955.334045 649.222412,955.627319 
	C641.681702,956.603394 639.430115,960.017212 642.000000,966.977905 
	C640.927612,967.048279 639.855286,967.118591 638.375000,966.671814 
	C636.579041,965.436523 635.219116,964.176086 633.797729,964.102478 
	C629.595398,963.885071 625.366943,964.077454 621.152222,964.216553 
	C612.225952,964.511292 603.300537,964.844482 594.380615,965.280518 
	C593.828735,965.307434 593.327087,966.363342 592.802002,966.940430 
z"/>
<path fill="#FD5E03" opacity="1.000000" stroke="none" 
	d="
M642.458130,967.086914 
	C639.430115,960.017212 641.681702,956.603394 649.222412,955.627319 
	C651.487488,955.334045 653.483215,952.038086 655.289612,949.858459 
	C655.675720,949.392517 654.849487,946.948914 654.336731,946.862000 
	C649.423462,946.029053 646.179199,943.620728 645.857788,936.967773 
	C643.884888,939.251770 643.077209,941.046326 641.841614,941.418030 
	C639.938171,941.990601 637.741333,941.587708 635.668945,941.598633 
	C636.190186,940.130066 636.458008,938.492554 637.296143,937.235229 
	C638.362610,935.635681 639.890869,934.343933 641.132446,933.013367 
	C631.170837,921.887573 621.069336,911.717346 607.025940,905.663269 
	C605.575439,910.253601 602.801575,912.801819 598.175720,913.268860 
	C597.304016,913.356873 596.539001,915.052124 595.828552,916.077576 
	C594.192932,918.438477 589.991455,918.839233 588.158264,916.762512 
	C583.411865,911.385803 577.864075,910.562195 572.130371,914.382996 
	C566.530396,918.114563 562.758484,917.347107 558.484192,912.382263 
	C557.053162,910.720032 554.540405,909.568604 552.325256,909.084717 
	C546.744324,907.865540 541.146912,906.466248 535.291199,908.527649 
	C534.254578,908.892517 531.754944,906.677612 530.737427,905.125305 
	C529.435181,903.138489 528.950378,900.615723 527.988953,897.983521 
	C525.010681,899.119568 522.490173,900.080994 519.810913,901.103027 
	C519.844849,894.631165 519.612488,894.796082 513.142517,894.668823 
	C508.564789,894.578735 504.009613,893.344788 497.757751,892.354187 
	C495.790588,889.723145 492.625427,885.489746 488.548248,880.036499 
	C484.542053,880.036499 478.749634,879.902649 472.974884,880.162598 
	C471.961517,880.208313 470.276550,881.826599 470.168213,882.852295 
	C469.372040,890.393555 463.734894,894.019165 458.096527,898.036011 
	C455.296722,891.400757 450.700623,887.225037 443.265778,885.546875 
	C440.213074,881.366943 430.579193,878.388000 426.293427,879.813477 
	C424.294006,880.478455 422.121674,880.944946 420.026154,880.950806 
	C393.385101,881.025513 366.743622,881.038757 340.102783,880.934021 
	C337.702545,880.924561 335.327576,879.811401 332.903687,879.514526 
	C324.657928,878.504822 316.566315,874.966553 308.017487,878.705261 
	C305.831055,879.661499 302.712708,879.067383 300.218842,878.424255 
	C299.350403,878.200256 298.285217,874.664062 298.656616,874.375732 
	C300.897430,872.636597 303.404724,870.608826 306.060638,870.191772 
	C309.612549,869.634033 313.674713,871.434509 316.983643,870.441833 
	C321.296875,869.147888 325.062103,866.064087 329.117432,863.849915 
	C330.254700,863.229004 331.568451,862.657227 332.826782,862.597168 
	C334.646973,862.510315 336.567841,863.341248 338.310699,863.028320 
	C346.381439,861.579346 354.640839,863.676331 362.806488,860.402039 
	C367.472748,858.530945 373.487396,860.032349 378.894836,859.996948 
	C383.221741,859.968628 387.549652,859.962158 391.874908,859.856628 
	C397.455566,859.720398 403.019623,857.057800 408.642090,859.880920 
	C409.362274,860.242554 410.511475,859.749878 410.187164,859.782959 
	C411.784882,857.291809 412.470673,855.018921 413.930328,854.284973 
	C415.391693,853.550171 417.626099,854.352600 419.988647,854.512939 
	C420.407074,853.574097 421.203522,851.787048 422.468658,850.000000 
	C428.252777,850.000000 433.570770,850.103149 438.883026,849.972961 
	C445.067780,849.821350 450.909943,850.374451 456.765747,853.089905 
	C460.780151,854.951477 465.637756,855.294495 469.879089,851.893311 
	C471.399139,850.674377 473.802887,850.295349 475.861481,850.074036 
	C478.653381,849.773987 481.501495,850.019287 484.324921,849.984375 
	C487.492035,849.945190 489.415710,848.657166 489.000336,845.137939 
	C490.436584,844.453674 491.872864,843.769470 493.891602,843.307617 
	C496.437683,843.000244 498.401306,842.470642 500.364868,841.941040 
	C499.925995,840.829346 499.487122,839.717651 499.048248,838.605957 
	C500.263092,836.264893 501.477875,833.923767 503.286682,831.290894 
	C504.920441,830.999451 505.960236,830.999756 507.158875,831.308472 
	C511.616638,834.638916 515.484497,833.770142 516.744812,828.863037 
	C517.954651,824.152344 518.396179,821.179016 524.974243,823.387024 
	C531.069641,825.433167 531.954346,825.269226 529.934509,831.420349 
	C529.351013,833.197327 529.527954,836.921326 530.221313,837.151978 
	C535.832031,839.018311 541.257751,842.854370 547.464539,840.343262 
	C547.990356,837.618774 547.648926,834.433594 549.073792,832.980713 
	C552.630859,829.353821 557.047424,831.387756 560.464478,833.534363 
	C562.269836,834.668457 563.612122,837.710510 563.780273,839.993103 
	C564.006592,843.065491 563.110107,846.291809 562.309570,849.351013 
	C561.278137,853.292358 563.099182,855.286255 566.419800,856.684753 
	C567.663757,857.208679 569.307434,857.771484 569.856445,858.802429 
	C574.566650,867.647949 578.259460,869.881104 587.889648,868.935059 
	C589.414001,868.785339 590.816223,867.649414 592.346802,867.234863 
	C593.820007,866.835999 595.437683,866.427002 596.902649,866.639038 
	C602.143311,867.397644 607.361511,868.339905 612.557129,869.369629 
	C615.519226,869.956787 619.071594,869.852966 619.204102,874.476990 
	C619.228455,875.325989 620.745972,876.420166 621.801941,876.899109 
	C625.361389,878.513428 629.161499,879.640564 632.601135,881.461182 
	C635.205688,882.839844 636.594666,884.974121 635.396912,888.507324 
	C632.932434,895.776794 636.784851,901.552002 644.326904,903.109619 
	C647.572632,903.779968 651.092651,904.736206 649.228210,910.164062 
	C653.190430,909.908447 656.624695,909.502625 660.051636,909.557373 
	C661.401306,909.578979 663.327393,910.288818 663.910461,911.305176 
	C664.509277,912.348938 663.950623,914.191956 663.582275,915.602661 
	C663.373962,916.400452 662.529541,917.032166 660.903259,919.091492 
	C664.247009,919.091492 666.732727,919.834839 668.232483,918.934875 
	C671.243164,917.128235 673.679260,914.380798 676.420349,912.103271 
	C679.171448,909.817383 681.639954,906.739624 686.010803,908.726746 
	C686.627441,909.007080 687.747742,908.097107 688.660950,907.825623 
	C690.446655,907.294617 692.250854,906.825439 694.047363,906.330688 
	C694.126160,908.345581 694.372681,910.372620 694.227356,912.371216 
	C694.122742,913.809265 692.806274,915.494446 693.249268,916.565125 
	C694.091797,918.601440 692.719421,923.329529 697.796448,921.469360 
	C704.198853,919.123596 710.034241,921.415527 713.364685,928.632385 
	C715.289001,932.802124 710.278687,933.770142 708.341064,936.138672 
	C707.395691,937.294189 706.341797,938.363098 705.308960,939.444336 
	C703.197876,941.654358 701.056519,943.835510 698.951172,946.050903 
	C698.169006,946.873840 697.229614,947.649414 696.743713,948.634888 
	C694.231934,953.728699 691.843811,958.883484 688.947083,965.000061 
	C688.309937,965.000061 686.308350,964.748718 684.408020,965.079346 
	C682.875305,965.345947 681.464783,966.315063 680.000000,966.972595 
	C667.638794,967.046997 655.277527,967.121460 642.458130,967.086914 
M420.562286,857.752014 
	C419.165619,857.926331 417.768951,858.100647 416.372253,858.274902 
	C416.554230,858.872925 416.736176,859.470886 416.918152,860.068848 
	C418.147430,859.526001 419.376709,858.983093 420.562286,857.752014 
z"/>
<path fill="#FD6302" opacity="1.000000" stroke="none" 
	d="
M499.894043,813.365967 
	C500.818665,812.494751 502.741791,811.924988 502.755310,811.313110 
	C502.842773,807.344727 502.195923,803.346497 502.451019,799.400879 
	C502.587738,797.286377 503.660309,793.765564 504.963928,793.431885 
	C513.309143,791.295654 518.631836,785.367859 524.356567,779.704956 
	C525.484802,778.588806 528.161255,778.544250 530.013306,778.801208 
	C531.651123,779.028442 533.135071,780.364258 534.654358,781.192810 
	C539.299805,773.777954 548.352417,768.770203 554.055725,770.170593 
	C558.536499,771.270813 559.725220,772.572083 560.336609,777.328735 
	C561.900635,777.823120 563.572083,778.680237 565.307861,778.840454 
	C571.334900,779.397095 575.536560,781.802979 578.169922,787.754883 
	C579.515686,790.796509 582.635925,792.262695 587.283752,790.927124 
	C591.006348,789.857361 595.829956,791.793518 599.943909,793.094543 
	C606.966919,795.315430 613.738037,796.287231 620.469543,792.332275 
	C622.138184,791.351929 623.969727,790.648987 626.037170,789.671631 
	C627.164124,792.561096 627.816101,795.127075 629.120911,797.301331 
	C630.207397,799.111877 631.819458,800.870361 633.622314,801.934387 
	C637.713623,804.349365 642.092896,805.862122 643.627441,811.451111 
	C644.200317,813.537659 648.086731,814.820801 650.591980,816.241699 
	C653.304443,817.780090 656.078064,818.673950 656.404968,822.819702 
	C656.544250,824.585815 659.539062,826.458252 661.599426,827.659546 
	C664.323547,829.247742 667.404236,830.224426 670.400635,831.493164 
	C668.215332,824.877686 669.649841,822.781677 675.860046,824.187500 
	C677.702209,824.604553 679.931458,826.784607 680.416687,828.580200 
	C680.778931,829.920593 679.017517,832.499023 677.518311,833.563538 
	C670.996643,838.194153 672.412842,838.603699 674.143555,845.513611 
	C675.849854,852.326294 683.056458,855.035950 683.487549,861.887878 
	C683.497131,862.039368 683.600342,862.223572 683.718201,862.323853 
	C688.023499,865.986328 692.318359,869.661743 696.674805,873.262573 
	C697.098816,873.612976 698.280945,873.799622 698.485535,873.549927 
	C702.063477,869.180908 705.667664,872.780090 709.655334,873.498047 
	C709.286987,874.390625 708.525879,875.312988 708.705200,875.983887 
	C709.135254,877.592834 709.830750,879.220581 710.836304,880.517212 
	C711.061707,880.807922 713.186218,880.013794 714.099915,879.292664 
	C715.504395,878.184143 716.617554,876.706665 718.475159,874.722778 
	C720.104797,877.085449 721.609802,879.267334 723.205688,881.581055 
	C729.778320,884.743530 734.193420,879.223206 739.468933,876.695312 
	C741.091797,875.917725 742.430359,872.003113 744.317261,875.358093 
	C745.534180,877.521667 745.152344,880.879456 744.733887,883.585571 
	C744.308716,886.335815 742.251526,888.922607 742.173279,891.617737 
	C742.041992,896.141846 743.912842,896.611023 748.444031,896.013550 
	C751.231873,895.645874 754.368286,897.020142 757.112976,898.172363 
	C757.537048,898.350342 756.439270,901.553040 756.519897,903.335388 
	C756.587585,904.833008 756.925537,906.807068 757.921204,907.632812 
	C758.867798,908.417969 761.150452,908.599121 762.279175,907.992249 
	C769.069458,904.341003 772.142395,905.867920 773.130066,913.254700 
	C773.378845,915.115295 774.854187,917.209534 776.396423,918.322876 
	C777.110718,918.838562 779.468933,917.462158 780.848816,916.579285 
	C782.893799,915.270996 790.043152,916.001587 791.261230,918.092773 
	C791.709473,918.862244 791.631287,920.473206 791.102051,921.190063 
	C787.736877,925.748474 788.802734,930.803772 789.054871,935.827637 
	C789.284424,940.399719 792.786804,941.795349 796.128662,942.646423 
	C797.695190,943.045410 799.920471,941.539612 801.606812,940.505188 
	C802.479553,939.969788 802.625549,937.975464 803.453918,937.698242 
	C805.263245,937.092834 807.298767,937.163879 809.241943,936.958496 
	C808.838379,938.733276 808.777954,941.868591 807.977722,942.070435 
	C800.682190,943.910522 802.616516,950.673706 799.718750,956.090515 
	C804.582458,956.090515 808.682556,956.090515 813.372681,956.090515 
	C811.933228,959.457703 810.977417,961.693665 810.014038,964.282593 
	C806.296570,965.145813 802.586670,965.656067 798.394653,965.728821 
	C796.327515,964.709351 794.730896,963.624146 793.160034,963.660278 
	C790.625793,963.718445 788.112549,964.907532 785.583252,964.934387 
	C772.336975,965.074951 759.087708,964.931641 745.841797,965.088135 
	C744.221375,965.107239 742.615173,966.332336 741.002441,966.998535 
	C737.633362,967.070374 734.264221,967.142273 730.455444,966.707153 
	C730.279480,962.436035 731.698120,959.850159 735.882507,959.081665 
	C739.602722,958.398438 739.835327,956.052734 737.716553,953.224121 
	C737.154541,952.473877 736.686340,951.653259 736.177490,950.868774 
	C741.937012,947.016113 743.170959,941.940369 739.958130,935.492554 
	C738.140442,931.844666 736.376038,928.329956 741.065369,924.933411 
	C736.646484,924.539795 732.265625,922.617371 729.929199,927.965881 
	C721.672424,925.101257 717.272400,919.279175 715.443970,911.307617 
	C712.514221,911.046936 709.836975,910.808777 705.969604,910.464661 
	C708.803894,906.846130 710.840149,904.178040 712.954895,901.573669 
	C714.119873,900.138916 716.588684,898.648987 716.424927,897.467163 
	C716.007385,894.454041 713.742798,892.487122 710.318054,893.024475 
	C706.419312,893.636230 702.556213,894.471497 698.664978,895.135376 
	C695.216614,895.723694 691.751038,896.210510 688.407104,896.724609 
	C689.868835,893.945679 690.854309,892.072144 691.839844,890.198608 
	C689.685364,889.465759 687.581116,888.449402 685.366333,888.056580 
	C680.083862,887.119507 675.017944,888.124878 670.030090,890.081116 
	C666.454895,891.483215 664.449707,890.060486 663.885315,886.095825 
	C663.680542,884.657227 662.419434,882.551819 661.221069,882.206909 
	C654.451233,880.258545 647.596375,878.536316 640.683228,877.182922 
	C636.930298,876.448242 636.441467,874.458923 637.394043,871.486816 
	C638.881531,866.846069 636.964355,863.704773 632.000061,863.041260 
	C630.448364,862.833801 628.871521,862.814941 625.760681,862.605957 
	C628.671753,859.066528 630.830200,856.711792 632.652771,854.120667 
	C633.677307,852.664307 635.093140,850.468445 634.636841,849.231262 
	C634.006897,847.523682 631.960022,846.049011 630.180725,845.135071 
	C628.321472,844.180054 626.034790,844.092346 623.979492,843.476990 
	C618.928284,841.964600 617.538879,839.431702 619.363403,834.363953 
	C620.461121,831.315063 619.127075,829.883789 616.596741,829.133179 
	C612.866699,828.026611 606.293091,831.676147 604.956543,835.412415 
	C602.940613,841.047363 600.044617,842.652893 594.119934,841.172974 
	C594.991333,836.062866 597.373535,832.064697 601.696167,829.001282 
	C602.839966,828.190735 603.923889,825.779236 603.512939,824.663452 
	C602.960083,823.162170 601.077759,821.463379 599.508362,821.153259 
	C594.905396,820.243713 591.935547,822.470825 591.089478,827.356750 
	C590.620728,830.063721 589.649292,830.982727 586.874146,830.917236 
	C584.661194,830.864990 582.425903,831.729919 580.201721,832.193604 
	C579.053467,832.432861 577.907837,832.684631 577.663635,832.737000 
	C578.158569,828.690918 578.429749,824.955383 579.153992,821.309814 
	C579.439087,819.874817 580.694397,818.612244 581.582642,817.322693 
	C582.656555,815.763611 583.809753,814.259155 584.928711,812.731140 
	C582.714722,811.625061 580.543579,809.753723 578.274780,809.626709 
	C575.977173,809.497986 573.564270,811.050476 571.271667,812.029968 
	C571.112549,812.098022 571.483948,813.538025 571.697327,814.315674 
	C571.985474,815.366150 572.359619,816.393005 572.744324,817.575745 
	C570.160217,818.684998 567.885193,819.662048 565.609802,820.638123 
	C563.831177,821.401001 560.760132,821.852478 560.490112,822.977051 
	C559.102783,828.754700 555.524902,826.951416 551.942749,826.173279 
	C550.246582,825.804871 548.419250,825.799927 546.675537,825.937439 
	C541.823975,826.320068 538.442322,822.185791 540.186401,817.678406 
	C541.273987,814.867554 542.692261,812.184692 543.774719,809.848816 
	C542.729858,809.457703 540.769348,809.340942 540.007080,808.325073 
	C537.507935,804.994507 534.263367,804.147644 530.347656,803.433350 
	C525.663940,802.578979 523.661072,803.456665 523.955994,808.405701 
	C524.151245,811.683655 521.668579,812.878357 519.357361,811.766785 
	C512.091736,808.272644 506.408203,809.755249 501.748962,816.111328 
	C501.169128,815.290222 500.589264,814.469116 499.894043,813.365967 
M548.194336,785.286682 
	C547.329346,784.297913 546.464294,783.309143 545.599243,782.320435 
	C544.031982,784.152222 542.464783,785.984009 540.622681,788.137085 
	C547.059082,789.549561 547.342041,789.452148 548.194336,785.286682 
M668.572571,852.645874 
	C668.572571,850.827332 668.572571,849.008728 668.572571,847.190186 
	C668.012573,847.169250 667.452576,847.148315 666.892578,847.127380 
	C666.052917,849.558838 665.213257,851.990356 663.867188,855.888306 
	C666.115051,854.513184 667.120728,853.898010 668.572571,852.645874 
z"/>
<path fill="#FD7202" opacity="1.000000" stroke="none" 
	d="
M856.002075,711.322876 
	C858.496399,711.838074 860.805176,712.672302 863.122314,713.509521 
	C869.230652,708.018250 875.196350,702.096985 881.797180,696.997925 
	C884.413879,694.976562 888.440735,694.780701 892.668884,693.497864 
	C892.737915,701.286682 886.897766,704.500000 883.299683,709.295959 
	C889.646790,708.617798 896.857361,713.213562 901.481140,704.881531 
	C902.238159,703.517456 905.892029,703.613098 908.239441,703.411072 
	C908.678650,703.373230 909.927246,705.400940 909.676025,706.013123 
	C908.815247,708.110413 907.513489,710.041199 906.263000,711.959290 
	C905.287964,713.454773 903.001099,715.096863 903.258972,716.225769 
	C904.576111,721.992310 906.396667,727.661072 908.394897,733.237244 
	C908.721436,734.148254 910.859009,734.989319 912.084167,734.893982 
	C916.270752,734.568298 918.493103,736.195007 919.723389,740.256592 
	C920.759766,743.677917 923.198792,745.463623 927.220642,746.221252 
	C932.640503,747.242188 937.772705,749.790649 943.603943,751.890869 
	C943.690857,752.599121 944.058533,753.875793 943.959839,755.115417 
	C943.664368,758.825928 945.289490,760.422363 948.934326,759.991943 
	C951.676270,759.668091 953.222839,760.734192 954.049377,763.468628 
	C955.196350,767.263000 956.603210,770.992798 958.127502,774.655029 
	C959.593140,778.176270 962.188660,780.149963 965.343506,779.588440 
	C966.098389,781.937317 967.198547,784.025208 967.382446,786.190918 
	C967.876648,792.009521 967.983154,797.861084 968.232178,803.700073 
	C968.266785,804.511292 968.237000,805.325256 968.237000,806.355042 
	C969.515625,806.746155 970.744568,807.161438 971.994812,807.497314 
	C976.039795,808.584290 976.655884,811.388672 975.491760,814.842834 
	C974.859253,816.719421 973.705566,818.413574 972.907166,820.242493 
	C970.763916,825.151794 971.860046,828.114563 976.807922,830.026489 
	C979.496216,831.065247 980.324524,832.342957 979.519470,835.295349 
	C978.838623,837.792419 979.149475,840.559937 979.034668,843.666809 
	C968.985657,861.972900 957.524353,878.795959 942.596191,892.991821 
	C933.867737,901.292114 924.913818,909.355347 916.042542,917.504822 
	C915.700684,917.818787 915.162659,917.919373 914.358032,917.663330 
	C912.908386,914.546997 911.901001,911.847534 910.689636,909.242920 
	C910.088440,907.950317 908.148682,906.201233 908.455505,905.732300 
	C911.540283,901.017944 914.214600,895.543640 918.513733,892.257935 
	C922.543274,889.178162 925.686584,886.318298 924.707214,881.515625 
	C923.648926,876.325500 920.761169,875.617065 915.920349,876.818359 
	C911.334229,877.956604 909.938354,875.729126 911.356079,871.123840 
	C911.719116,869.944580 912.025940,868.213806 911.442749,867.367981 
	C908.572205,863.205078 910.880676,859.499573 911.856079,855.547607 
	C912.402161,853.335388 912.618164,850.681885 911.907104,848.593445 
	C910.383423,844.118164 912.202820,840.175964 917.586243,838.428406 
	C917.754150,839.741394 917.571106,841.217712 918.182983,842.197266 
	C918.696106,843.018677 920.137085,843.260498 921.167236,843.758911 
	C921.664185,842.689819 922.816223,840.893921 922.558655,840.661682 
	C919.227905,837.659424 918.605835,831.981934 913.098206,831.128174 
	C908.051819,830.346008 906.454590,827.270569 906.922180,822.294861 
	C907.496948,816.177612 905.827271,814.774597 899.484924,813.947144 
	C896.083862,813.503418 892.645508,812.727417 889.447266,811.513184 
	C885.915588,810.172546 885.688416,807.632507 888.152039,804.785034 
	C889.918945,802.742920 892.625854,800.694275 889.239929,797.731384 
	C886.358398,795.209839 883.588318,793.716858 880.047852,796.868774 
	C879.008179,797.794312 877.105835,797.750916 875.598877,798.151550 
	C875.207825,797.553040 874.816833,796.954529 874.425781,796.356018 
	C883.860352,791.896545 881.614746,782.969116 884.206360,774.185547 
	C880.131287,775.481628 876.721497,775.843445 874.217163,777.540955 
	C870.894836,779.792786 869.579041,778.638794 868.700256,776.916626 
	C871.604797,771.738159 874.098022,767.381409 876.482849,762.966187 
	C876.960754,762.081299 877.025574,760.973389 877.280884,759.968262 
	C876.089233,759.924133 874.844116,759.632874 873.714905,759.877136 
	C867.773132,761.162415 861.881836,762.697876 855.909912,763.805786 
	C855.192505,763.938965 853.127686,761.656433 853.332947,761.093201 
	C854.325745,758.368652 856.055847,755.921814 857.176147,753.231445 
	C857.936096,751.406311 858.119934,749.341248 858.561462,747.383484 
	C856.953918,747.450500 855.305725,747.776489 853.747131,747.531921 
	C850.295593,746.990234 845.569031,751.565918 843.550598,745.702698 
	C842.280151,742.012390 840.031433,741.810974 837.065247,742.001465 
	C845.458557,733.205139 852.162842,723.365601 856.002075,711.322876 
z"/>
<path fill="#FE6902" opacity="1.000000" stroke="none" 
	d="
M828.002441,957.004883 
	C827.558472,952.394775 828.243225,949.031006 833.464294,946.765503 
	C835.595642,945.840698 836.276917,940.662354 836.692749,937.304626 
	C836.803650,936.408630 833.635803,934.550781 831.738342,934.079163 
	C827.955444,933.139038 826.721008,930.394714 826.110901,927.242615 
	C825.556580,924.378479 825.945740,921.916992 829.192627,920.168823 
	C830.941040,919.227661 831.713318,916.473450 832.926025,914.537231 
	C831.027222,913.691467 829.191589,912.364014 827.215881,912.104797 
	C823.600342,911.630432 819.929565,911.560669 817.192322,915.011597 
	C816.682312,915.654541 814.648071,915.088623 813.317383,915.080627 
	C813.625610,913.885986 813.660522,912.510010 814.305176,911.538391 
	C815.313293,910.018738 817.875366,908.662354 817.756531,907.432251 
	C817.452942,904.290955 816.750610,900.681824 814.868042,898.334045 
	C812.739014,895.678833 809.301514,893.876770 806.121643,892.354004 
	C804.801575,891.721985 802.118530,892.173340 801.027527,893.182800 
	C798.542725,895.481812 796.499268,897.744202 792.616943,896.250610 
	C792.207520,896.093079 790.786987,898.385193 789.933228,899.609009 
	C788.964050,900.998413 788.104553,902.464417 787.197327,903.897095 
	C786.322998,903.278076 784.645752,902.532837 784.719604,902.063049 
	C784.976807,900.428101 785.848572,898.891785 786.471558,897.312012 
	C787.044189,895.860046 787.625549,894.410583 788.153320,892.942200 
	C789.205261,890.015625 790.619690,887.143005 791.123657,884.121216 
	C791.496521,881.885071 791.461670,878.732910 790.162964,877.288879 
	C788.668152,875.626587 785.511597,874.550415 783.203979,874.743225 
	C779.852661,875.023071 776.662720,876.891968 773.302246,877.601257 
	C772.199646,877.834045 770.006409,876.855347 769.662354,875.929077 
	C768.871216,873.799377 768.285522,871.230896 768.736877,869.075012 
	C769.794800,864.021057 771.584412,859.124084 772.890747,854.114746 
	C773.121643,853.229126 772.447632,852.107422 771.962463,850.189392 
	C769.887573,853.216248 768.567627,855.616211 766.765808,857.572327 
	C765.850098,858.566467 763.711426,859.567444 762.751709,859.144592 
	C760.923645,858.338989 758.989502,856.785095 758.135803,855.036072 
	C757.282959,853.289062 757.859375,850.894714 757.499268,848.838440 
	C757.273132,847.547363 756.475891,846.356262 756.135559,845.578979 
	C753.439331,847.238708 751.350708,849.277710 748.959290,849.735657 
	C747.323853,850.048889 743.851868,848.351257 743.696167,847.211731 
	C743.385620,844.938660 744.803040,842.434204 745.485718,840.019348 
	C745.988281,838.241577 746.457520,836.454285 746.941650,834.671265 
	C745.195618,834.973389 743.449646,835.275574 741.097229,835.682617 
	C737.456238,828.948914 733.370422,836.284485 729.238586,836.901184 
	C725.695129,829.835022 725.608887,825.939026 732.151367,822.060852 
	C737.714478,818.763428 736.388428,814.134521 737.217834,808.736450 
	C734.002930,810.151184 730.789246,811.568604 727.572693,812.979614 
	C725.209106,814.016479 722.794312,814.951111 720.495422,816.115051 
	C719.255493,816.742859 718.226440,817.778381 717.074280,818.590210 
	C715.899719,819.417908 714.746826,820.777100 713.487366,820.898743 
	C707.422302,821.484680 706.878418,820.638855 708.179993,814.738525 
	C709.083862,810.640625 709.620239,806.515930 714.565247,805.016113 
	C715.265137,804.803833 715.833984,803.179260 715.938477,802.154785 
	C716.374695,797.878479 716.808777,793.581482 716.804504,789.292542 
	C716.803162,787.919739 715.651184,785.621460 714.660828,785.403442 
	C713.329895,785.110474 711.619202,786.367859 710.120850,787.065613 
	C708.913025,787.628174 707.756042,788.936584 706.614929,788.893494 
	C702.082825,788.722534 699.465088,790.300049 699.947205,795.468567 
	C697.134521,796.010376 694.542908,796.403870 692.013611,797.044067 
	C690.846741,797.339417 689.706299,797.986145 688.722595,798.704651 
	C686.994568,799.966736 685.025818,802.826050 683.812195,802.509277 
	C679.964600,801.505005 674.838135,801.072998 674.240723,795.742432 
	C673.817322,791.964783 671.208801,792.142883 668.859497,790.708313 
	C663.961609,787.717224 659.686218,785.788086 653.726440,787.659363 
	C651.688477,788.299194 648.611267,785.629028 645.337708,785.483093 
	C644.931396,784.592529 644.370239,783.739502 644.144104,782.805420 
	C642.737427,776.993774 641.823059,776.598022 636.039612,778.355042 
	C634.044189,778.961243 631.769958,778.649963 628.871094,778.795532 
	C629.706787,776.348389 630.150635,775.048767 630.577393,773.799194 
	C630.151489,773.491211 629.917786,773.200745 629.631714,773.133667 
	C625.535767,772.172607 621.435730,771.228455 617.328857,770.315186 
	C616.526672,770.136780 615.640015,769.875488 614.879761,770.044922 
	C608.833435,771.392517 602.819153,772.884644 596.766479,774.201355 
	C595.695923,774.434204 594.492554,774.056274 593.350525,773.960388 
	C593.321472,773.521667 593.292419,773.082947 593.263428,772.644226 
	C598.578125,770.429932 603.892883,768.215637 610.072388,766.000671 
	C617.624695,766.000000 624.312378,766.000000 631.375000,766.000000 
	C632.500000,766.000000 633.250000,766.000000 634.448120,766.000000 
	C649.745422,766.001282 664.594666,765.992554 679.443848,766.023376 
	C680.591248,766.025757 681.734619,766.341797 682.885681,766.451660 
	C690.759399,767.202698 698.639221,768.509888 706.507629,768.447937 
	C710.750000,768.414551 712.694885,769.923889 712.852844,773.347595 
	C713.066284,777.971436 715.758911,778.443359 719.341248,779.130676 
	C722.401611,779.717896 725.294250,781.343689 728.157837,782.724243 
	C729.621399,783.429810 730.792664,785.311035 732.209839,785.443481 
	C737.790771,785.965088 740.292542,793.632874 746.881531,791.609802 
	C747.212280,791.508240 747.837280,792.445923 748.355713,792.861816 
	C753.358215,796.875061 758.513977,800.547668 765.344910,800.476685 
	C767.026917,792.431152 768.662354,791.093933 775.975952,792.072144 
	C777.762634,792.311157 779.463928,793.131714 781.232788,793.571045 
	C786.750977,794.941589 790.923767,792.356506 792.093811,787.137390 
	C792.337463,786.050659 793.460388,785.161011 794.178101,784.180542 
	C795.399658,785.128113 797.437073,785.897034 797.690857,787.056396 
	C798.474548,790.635864 797.138489,793.434814 793.450867,795.025330 
	C791.816467,795.730286 789.751465,796.986572 789.237610,798.464050 
	C787.303345,804.024902 785.847839,809.759399 784.371460,815.469849 
	C783.509705,818.803101 783.392639,822.227783 788.187683,822.088623 
	C790.759277,822.013977 793.267639,820.562439 795.864319,820.278015 
	C797.714539,820.075500 800.094116,820.243713 801.405334,821.289673 
	C802.169434,821.899231 801.807068,824.846741 801.039795,826.240295 
	C799.783264,828.522461 797.771667,830.385681 796.100037,832.443054 
	C792.790527,836.516235 793.393616,840.257690 797.551086,842.872437 
	C798.734497,843.616638 800.227234,844.883606 800.387634,846.071655 
	C801.284363,852.711731 805.452087,853.812500 811.071472,853.035522 
	C812.365662,852.856628 813.766846,852.927490 815.040955,853.221130 
	C819.697571,854.294189 821.648132,857.167297 819.153748,861.161865 
	C816.954956,864.683105 813.010193,867.132202 809.759705,869.966797 
	C808.848938,870.761047 807.284424,870.995911 806.684631,871.919250 
	C805.156372,874.271851 804.003418,876.868225 802.669678,879.425720 
	C806.500671,882.282410 810.905640,881.211243 813.195251,877.284119 
	C815.634399,873.100403 818.769043,869.322205 821.600037,865.366943 
	C821.891113,866.001892 822.182129,866.636780 822.473145,867.271729 
	C825.197632,868.038147 828.306458,870.007019 830.556030,869.287842 
	C833.893250,868.220886 836.557739,865.151184 839.646606,863.146545 
	C840.630920,862.507812 842.095398,862.240051 843.260010,862.397095 
	C843.883972,862.481201 844.867493,863.903564 844.770691,864.593201 
	C844.453674,866.852112 844.426331,869.820862 843.007751,871.131409 
	C838.604980,875.198608 837.484680,878.722595 842.757080,882.771912 
	C843.290222,883.181458 843.428955,884.104492 843.750671,884.789246 
	C843.937378,884.408264 844.124146,884.027344 844.310852,883.646362 
	C846.185059,884.081848 848.059326,884.517334 851.072205,885.217468 
	C848.648682,887.417358 847.469788,888.487488 846.290894,889.557556 
	C846.745239,889.555847 847.199524,889.554138 847.653870,889.552429 
	C848.157166,893.037170 848.984985,896.514771 849.061829,900.008911 
	C849.124084,902.839172 850.110840,903.834290 852.804260,904.034241 
	C858.541199,904.460205 860.090881,906.352234 858.775146,911.860657 
	C858.060425,914.852722 856.591919,917.695068 855.239624,920.496887 
	C853.516052,924.068237 851.566040,927.530273 849.231567,931.952698 
	C853.531189,931.039612 856.393066,930.431885 860.145020,929.635132 
	C858.363037,937.367371 861.076843,945.753784 851.381897,948.610718 
	C850.832520,948.772583 850.456604,949.523315 849.587158,949.990723 
	C840.219299,947.836731 839.144348,948.367188 838.630737,955.002808 
	C834.311218,954.537720 835.630676,957.036926 836.009094,959.006714 
	C836.009094,959.006714 836.000000,959.000000 835.862793,959.007080 
	C835.539124,959.043579 835.367432,959.110657 835.210449,959.215576 
	C833.791748,959.650818 832.373047,960.085999 830.508240,960.522522 
	C830.046509,960.269592 830.030884,960.015442 829.964600,959.059814 
	C829.276794,957.907227 828.639587,957.456055 828.002441,957.004883 
M774.255310,803.255981 
	C774.255310,801.557495 774.255310,799.859009 774.255310,798.739624 
	C772.373901,800.168640 770.491821,801.402893 768.886658,802.928528 
	C768.358765,803.430298 768.110779,804.961853 768.482300,805.551575 
	C770.441284,808.660767 772.182495,812.437561 777.016357,810.944885 
	C778.077332,810.617310 779.735168,809.726379 779.753357,809.057800 
	C779.787415,807.808838 779.096802,806.257690 778.189941,805.348816 
	C777.362488,804.519470 775.849731,804.373718 774.255310,803.255981 
M845.867126,939.334717 
	C845.643494,940.705200 845.419800,942.075623 845.196167,943.446106 
	C846.041565,943.302734 846.886963,943.159424 847.732361,943.016113 
	C847.244690,941.597534 846.757019,940.178894 845.867126,939.334717 
M753.522400,804.313110 
	C752.977173,803.975281 752.432007,803.637451 751.886902,803.299622 
	C751.752563,803.573181 751.618164,803.846680 751.483765,804.120178 
	C752.017700,804.324768 752.551575,804.529358 753.522400,804.313110 
z"/>
<path fill="#FE6E02" opacity="1.000000" stroke="none" 
	d="
M836.844971,742.198669 
	C840.031433,741.810974 842.280151,742.012390 843.550598,745.702698 
	C845.569031,751.565918 850.295593,746.990234 853.747131,747.531921 
	C855.305725,747.776489 856.953918,747.450500 858.561462,747.383484 
	C858.119934,749.341248 857.936096,751.406311 857.176147,753.231445 
	C856.055847,755.921814 854.325745,758.368652 853.332947,761.093201 
	C853.127686,761.656433 855.192505,763.938965 855.909912,763.805786 
	C861.881836,762.697876 867.773132,761.162415 873.714905,759.877136 
	C874.844116,759.632874 876.089233,759.924133 877.280884,759.968262 
	C877.025574,760.973389 876.960754,762.081299 876.482849,762.966187 
	C874.098022,767.381409 871.604797,771.738159 868.700256,776.916626 
	C869.579041,778.638794 870.894836,779.792786 874.217163,777.540955 
	C876.721497,775.843445 880.131287,775.481628 884.206360,774.185547 
	C881.614746,782.969116 883.860352,791.896545 874.425781,796.356018 
	C874.816833,796.954529 875.207825,797.553040 875.598877,798.151550 
	C877.105835,797.750916 879.008179,797.794312 880.047852,796.868774 
	C883.588318,793.716858 886.358398,795.209839 889.239929,797.731384 
	C892.625854,800.694275 889.918945,802.742920 888.152039,804.785034 
	C885.688416,807.632507 885.915588,810.172546 889.447266,811.513184 
	C892.645508,812.727417 896.083862,813.503418 899.484924,813.947144 
	C905.827271,814.774597 907.496948,816.177612 906.922180,822.294861 
	C906.454590,827.270569 908.051819,830.346008 913.098206,831.128174 
	C918.605835,831.981934 919.227905,837.659424 922.558655,840.661682 
	C922.816223,840.893921 921.664185,842.689819 921.167236,843.758911 
	C920.137085,843.260498 918.696106,843.018677 918.182983,842.197266 
	C917.571106,841.217712 917.754150,839.741394 917.586243,838.428406 
	C912.202820,840.175964 910.383423,844.118164 911.907104,848.593445 
	C912.618164,850.681885 912.402161,853.335388 911.856079,855.547607 
	C910.880676,859.499573 908.572205,863.205078 911.442749,867.367981 
	C912.025940,868.213806 911.719116,869.944580 911.356079,871.123840 
	C909.938354,875.729126 911.334229,877.956604 915.920349,876.818359 
	C920.761169,875.617065 923.648926,876.325500 924.707214,881.515625 
	C925.686584,886.318298 922.543274,889.178162 918.513733,892.257935 
	C914.214600,895.543640 911.540283,901.017944 908.455505,905.732300 
	C908.148682,906.201233 910.088440,907.950317 910.689636,909.242920 
	C911.901001,911.847534 912.908386,914.546997 914.000549,917.611084 
	C912.933960,919.256409 911.866882,920.497925 910.431152,921.441528 
	C909.436340,918.077515 907.547913,919.161865 905.994080,920.059326 
	C903.262695,921.636902 901.778259,923.847534 903.276367,927.125244 
	C902.800171,927.538391 902.324097,927.951477 901.376099,928.145264 
	C897.668457,926.892029 896.844849,928.514771 897.127136,931.355469 
	C894.095947,933.255249 891.064697,935.155090 887.336426,936.959717 
	C885.136841,936.252991 883.089233,936.057922 882.240356,934.946899 
	C880.204285,932.282104 877.642578,932.737183 876.322754,934.514343 
	C873.543701,938.256470 871.537781,942.572754 869.214600,946.653442 
	C868.350342,947.128357 867.486145,947.603271 866.308594,947.702515 
	C863.719910,944.182190 864.598633,941.696411 866.938049,938.789673 
	C868.874207,936.383911 869.371399,932.850586 871.205505,930.324707 
	C873.636047,926.977600 876.220825,922.590393 879.683655,921.402100 
	C885.591370,919.374817 889.931641,916.187439 893.043884,911.153442 
	C893.642395,910.185303 892.949951,907.963196 892.205811,906.701477 
	C889.267151,901.719116 885.855164,897.007751 883.064331,891.949951 
	C881.741272,889.552185 881.422424,886.600281 880.962036,884.993347 
	C883.623962,882.859741 885.229919,881.572510 886.835815,880.285278 
	C884.792725,878.532776 882.995667,876.120544 880.628296,875.237610 
	C878.751587,874.537659 876.163208,875.646606 873.914490,876.076050 
	C872.275635,876.388977 870.675232,876.903259 869.057678,877.327759 
	C868.791321,875.438354 868.425720,873.555420 868.301270,871.656677 
	C868.240601,870.730835 868.629578,869.775452 868.599487,869.928284 
	C863.198792,867.187378 858.140991,864.978394 853.465027,862.140198 
	C849.324890,859.627319 850.042297,854.730896 854.428345,852.690674 
	C856.087585,851.918884 857.587402,850.804321 859.159912,849.846008 
	C859.044495,849.355896 858.929138,848.865723 858.813721,848.375549 
	C856.295837,848.247864 853.723145,848.385071 851.283325,847.880249 
	C850.069153,847.629028 848.085144,846.071716 848.180176,845.325562 
	C848.857666,840.003357 845.437622,836.830811 842.769043,833.041016 
	C841.308105,830.966248 840.263062,827.818909 840.652222,825.417969 
	C841.140015,822.408081 843.291260,819.667664 844.742249,816.775757 
	C842.078369,815.754395 839.500977,815.250793 837.557495,813.860779 
	C836.118652,812.831665 835.458801,810.674072 834.536987,808.973083 
	C833.694824,807.419189 833.182251,804.687317 832.136230,804.485291 
	C830.686523,804.205383 828.638489,805.531067 827.286621,806.684875 
	C826.090454,807.705811 825.636475,809.545349 824.604858,810.821411 
	C822.825928,813.021729 820.817566,813.863037 818.200256,811.739807 
	C815.486206,809.538086 816.131775,807.433044 818.141968,805.461426 
	C819.780945,803.853882 822.483582,802.943420 823.401733,801.077637 
	C824.825500,798.184692 826.449951,794.261719 825.508728,791.679626 
	C824.710876,789.490662 820.509888,788.181824 817.570190,787.378601 
	C816.803833,787.169189 815.109802,790.289551 813.875061,791.906006 
	C813.579651,792.292786 813.531128,792.937988 813.174744,793.196533 
	C811.393677,794.488831 809.633240,795.885620 807.651062,796.758484 
	C807.267029,796.927612 805.416138,795.054443 805.134521,793.904724 
	C804.504883,791.334290 805.028992,789.091003 808.028564,787.882019 
	C809.423279,787.319824 810.990479,785.998352 811.510315,784.647949 
	C814.611938,776.591309 811.153625,766.574036 799.160278,767.489990 
	C801.153198,765.872253 802.536316,765.117249 803.373779,763.965454 
	C804.198730,762.830872 804.470764,761.294250 804.985352,759.934021 
	C806.679565,759.366272 808.373779,758.798523 810.485962,758.633118 
	C812.430420,761.662415 813.712097,764.490784 815.616516,766.807129 
	C816.282043,767.616516 818.839478,767.779846 819.908020,767.160278 
	C822.179138,765.843506 821.276550,756.582092 818.967651,754.900513 
	C820.008179,754.274658 821.048767,753.648743 822.658447,752.904541 
	C823.484253,752.533264 823.740967,752.280396 823.997742,752.027527 
	C823.997742,752.027527 824.237122,751.809692 824.827698,751.874878 
	C826.278870,751.960083 827.139404,751.980042 828.000000,752.400940 
	C828.735107,754.686096 829.421753,756.594116 830.310730,758.402649 
	C830.372498,758.528259 832.682739,757.918701 832.684204,757.644409 
	C832.694214,755.756348 832.369751,753.866333 832.148010,751.977539 
	C832.109497,751.648743 832.048218,751.322510 832.164246,750.605591 
	C832.226379,749.138184 832.121826,748.060364 832.017334,746.982483 
	C832.017273,746.982483 832.032349,746.888428 832.419739,746.929688 
	C833.552124,746.020569 834.297119,745.070251 835.042114,744.119995 
	C835.569641,743.545288 836.097229,742.970581 836.844971,742.198669 
M829.066589,777.272705 
	C829.591919,777.663452 830.117249,778.054260 830.642639,778.445068 
	C831.072815,777.211182 831.503052,775.977295 831.933289,774.743408 
	C831.522644,774.557861 831.112061,774.372375 830.701477,774.186829 
	C830.155029,774.982788 829.608582,775.778748 829.066589,777.272705 
M903.026123,829.664795 
	C902.742615,830.567322 902.459045,831.469849 902.175537,832.372437 
	C902.689270,832.753601 903.203064,833.134766 903.716797,833.515930 
	C904.081238,832.673401 904.653748,831.849304 904.730347,830.981323 
	C904.774780,830.477295 904.022583,829.903076 903.026123,829.664795 
z"/>
<path fill="#FD6B02" opacity="1.000000" stroke="none" 
	d="
M804.573120,759.920044 
	C804.470764,761.294250 804.198730,762.830872 803.373779,763.965454 
	C802.536316,765.117249 801.153198,765.872253 799.160278,767.489990 
	C811.153625,766.574036 814.611938,776.591309 811.510315,784.647949 
	C810.990479,785.998352 809.423279,787.319824 808.028564,787.882019 
	C805.028992,789.091003 804.504883,791.334290 805.134521,793.904724 
	C805.416138,795.054443 807.267029,796.927612 807.651062,796.758484 
	C809.633240,795.885620 811.393677,794.488831 813.174744,793.196533 
	C813.531128,792.937988 813.579651,792.292786 813.875061,791.906006 
	C815.109802,790.289551 816.803833,787.169189 817.570190,787.378601 
	C820.509888,788.181824 824.710876,789.490662 825.508728,791.679626 
	C826.449951,794.261719 824.825500,798.184692 823.401733,801.077637 
	C822.483582,802.943420 819.780945,803.853882 818.141968,805.461426 
	C816.131775,807.433044 815.486206,809.538086 818.200256,811.739807 
	C820.817566,813.863037 822.825928,813.021729 824.604858,810.821411 
	C825.636475,809.545349 826.090454,807.705811 827.286621,806.684875 
	C828.638489,805.531067 830.686523,804.205383 832.136230,804.485291 
	C833.182251,804.687317 833.694824,807.419189 834.536987,808.973083 
	C835.458801,810.674072 836.118652,812.831665 837.557495,813.860779 
	C839.500977,815.250793 842.078369,815.754395 844.742249,816.775757 
	C843.291260,819.667664 841.140015,822.408081 840.652222,825.417969 
	C840.263062,827.818909 841.308105,830.966248 842.769043,833.041016 
	C845.437622,836.830811 848.857666,840.003357 848.180176,845.325562 
	C848.085144,846.071716 850.069153,847.629028 851.283325,847.880249 
	C853.723145,848.385071 856.295837,848.247864 858.813721,848.375549 
	C858.929138,848.865723 859.044495,849.355896 859.159912,849.846008 
	C857.587402,850.804321 856.087585,851.918884 854.428345,852.690674 
	C850.042297,854.730896 849.324890,859.627319 853.465027,862.140198 
	C858.140991,864.978394 863.198792,867.187378 868.599487,869.928284 
	C868.629578,869.775452 868.240601,870.730835 868.301270,871.656677 
	C868.425720,873.555420 868.791321,875.438354 869.057678,877.327759 
	C870.675232,876.903259 872.275635,876.388977 873.914490,876.076050 
	C876.163208,875.646606 878.751587,874.537659 880.628296,875.237610 
	C882.995667,876.120544 884.792725,878.532776 886.835815,880.285278 
	C885.229919,881.572510 883.623962,882.859741 880.962036,884.993347 
	C881.422424,886.600281 881.741272,889.552185 883.064331,891.949951 
	C885.855164,897.007751 889.267151,901.719116 892.205811,906.701477 
	C892.949951,907.963196 893.642395,910.185303 893.043884,911.153442 
	C889.931641,916.187439 885.591370,919.374817 879.683655,921.402100 
	C876.220825,922.590393 873.636047,926.977600 871.205505,930.324707 
	C869.371399,932.850586 868.874207,936.383911 866.938049,938.789673 
	C864.598633,941.696411 863.719910,944.182190 866.008057,947.699951 
	C860.271484,950.421875 854.522156,952.770691 848.432617,954.766968 
	C848.728333,952.942932 849.364197,951.471497 850.000000,950.000000 
	C850.456604,949.523315 850.832520,948.772583 851.381897,948.610718 
	C861.076843,945.753784 858.363037,937.367371 860.145020,929.635132 
	C856.393066,930.431885 853.531189,931.039612 849.231567,931.952698 
	C851.566040,927.530273 853.516052,924.068237 855.239624,920.496887 
	C856.591919,917.695068 858.060425,914.852722 858.775146,911.860657 
	C860.090881,906.352234 858.541199,904.460205 852.804260,904.034241 
	C850.110840,903.834290 849.124084,902.839172 849.061829,900.008911 
	C848.984985,896.514771 848.157166,893.037170 847.653870,889.552429 
	C847.199524,889.554138 846.745239,889.555847 846.290894,889.557556 
	C847.469788,888.487488 848.648682,887.417358 851.072205,885.217468 
	C848.059326,884.517334 846.185059,884.081848 844.310852,883.646362 
	C844.124146,884.027344 843.937378,884.408264 843.750671,884.789246 
	C843.428955,884.104492 843.290222,883.181458 842.757080,882.771912 
	C837.484680,878.722595 838.604980,875.198608 843.007751,871.131409 
	C844.426331,869.820862 844.453674,866.852112 844.770691,864.593201 
	C844.867493,863.903564 843.883972,862.481201 843.260010,862.397095 
	C842.095398,862.240051 840.630920,862.507812 839.646606,863.146545 
	C836.557739,865.151184 833.893250,868.220886 830.556030,869.287842 
	C828.306458,870.007019 825.197632,868.038147 822.473145,867.271729 
	C822.182129,866.636780 821.891113,866.001892 821.600037,865.366943 
	C818.769043,869.322205 815.634399,873.100403 813.195251,877.284119 
	C810.905640,881.211243 806.500671,882.282410 802.669678,879.425720 
	C804.003418,876.868225 805.156372,874.271851 806.684631,871.919250 
	C807.284424,870.995911 808.848938,870.761047 809.759705,869.966797 
	C813.010193,867.132202 816.954956,864.683105 819.153748,861.161865 
	C821.648132,857.167297 819.697571,854.294189 815.040955,853.221130 
	C813.766846,852.927490 812.365662,852.856628 811.071472,853.035522 
	C805.452087,853.812500 801.284363,852.711731 800.387634,846.071655 
	C800.227234,844.883606 798.734497,843.616638 797.551086,842.872437 
	C793.393616,840.257690 792.790527,836.516235 796.100037,832.443054 
	C797.771667,830.385681 799.783264,828.522461 801.039795,826.240295 
	C801.807068,824.846741 802.169434,821.899231 801.405334,821.289673 
	C800.094116,820.243713 797.714539,820.075500 795.864319,820.278015 
	C793.267639,820.562439 790.759277,822.013977 788.187683,822.088623 
	C783.392639,822.227783 783.509705,818.803101 784.371460,815.469849 
	C785.847839,809.759399 787.303345,804.024902 789.237610,798.464050 
	C789.751465,796.986572 791.816467,795.730286 793.450867,795.025330 
	C797.138489,793.434814 798.474548,790.635864 797.690857,787.056396 
	C797.437073,785.897034 795.399658,785.128113 794.178101,784.180542 
	C793.460388,785.161011 792.337463,786.050659 792.093811,787.137390 
	C790.923767,792.356506 786.750977,794.941589 781.232788,793.571045 
	C779.463928,793.131714 777.762634,792.311157 775.975952,792.072144 
	C768.662354,791.093933 767.026917,792.431152 765.344910,800.476685 
	C758.513977,800.547668 753.358215,796.875061 748.355713,792.861816 
	C747.837280,792.445923 747.212280,791.508240 746.881531,791.609802 
	C740.292542,793.632874 737.790771,785.965088 732.209839,785.443481 
	C730.792664,785.311035 729.621399,783.429810 728.157837,782.724243 
	C725.294250,781.343689 722.401611,779.717896 719.341248,779.130676 
	C715.758911,778.443359 713.066284,777.971436 712.852844,773.347595 
	C712.694885,769.923889 710.750000,768.414551 706.507629,768.447937 
	C698.639221,768.509888 690.759399,767.202698 682.885681,766.451660 
	C681.734619,766.341797 680.591248,766.025757 679.443848,766.023376 
	C664.594666,765.992554 649.745422,766.001282 634.397705,765.666321 
	C632.932861,765.555054 631.966431,765.777527 631.000000,766.000000 
	C624.312378,766.000000 617.624695,766.000000 610.468506,766.000000 
	C609.687744,764.892334 609.375488,763.784607 609.031616,762.330200 
	C621.482422,761.902649 633.964783,761.758301 646.447205,761.752319 
	C693.073547,761.730103 739.700012,761.819275 786.325928,761.677307 
	C792.272644,761.659180 798.215942,760.523926 804.573120,759.920044 
z"/>
<path fill="#FD6002" opacity="1.000000" stroke="none" 
	d="
M501.791412,816.471863 
	C506.408203,809.755249 512.091736,808.272644 519.357361,811.766785 
	C521.668579,812.878357 524.151245,811.683655 523.955994,808.405701 
	C523.661072,803.456665 525.663940,802.578979 530.347656,803.433350 
	C534.263367,804.147644 537.507935,804.994507 540.007080,808.325073 
	C540.769348,809.340942 542.729858,809.457703 543.774719,809.848816 
	C542.692261,812.184692 541.273987,814.867554 540.186401,817.678406 
	C538.442322,822.185791 541.823975,826.320068 546.675537,825.937439 
	C548.419250,825.799927 550.246582,825.804871 551.942749,826.173279 
	C555.524902,826.951416 559.102783,828.754700 560.490112,822.977051 
	C560.760132,821.852478 563.831177,821.401001 565.609802,820.638123 
	C567.885193,819.662048 570.160217,818.684998 572.744324,817.575745 
	C572.359619,816.393005 571.985474,815.366150 571.697327,814.315674 
	C571.483948,813.538025 571.112549,812.098022 571.271667,812.029968 
	C573.564270,811.050476 575.977173,809.497986 578.274780,809.626709 
	C580.543579,809.753723 582.714722,811.625061 584.928711,812.731140 
	C583.809753,814.259155 582.656555,815.763611 581.582642,817.322693 
	C580.694397,818.612244 579.439087,819.874817 579.153992,821.309814 
	C578.429749,824.955383 578.158569,828.690918 577.663635,832.737000 
	C577.907837,832.684631 579.053467,832.432861 580.201721,832.193604 
	C582.425903,831.729919 584.661194,830.864990 586.874146,830.917236 
	C589.649292,830.982727 590.620728,830.063721 591.089478,827.356750 
	C591.935547,822.470825 594.905396,820.243713 599.508362,821.153259 
	C601.077759,821.463379 602.960083,823.162170 603.512939,824.663452 
	C603.923889,825.779236 602.839966,828.190735 601.696167,829.001282 
	C597.373535,832.064697 594.991333,836.062866 594.119934,841.172974 
	C600.044617,842.652893 602.940613,841.047363 604.956543,835.412415 
	C606.293091,831.676147 612.866699,828.026611 616.596741,829.133179 
	C619.127075,829.883789 620.461121,831.315063 619.363403,834.363953 
	C617.538879,839.431702 618.928284,841.964600 623.979492,843.476990 
	C626.034790,844.092346 628.321472,844.180054 630.180725,845.135071 
	C631.960022,846.049011 634.006897,847.523682 634.636841,849.231262 
	C635.093140,850.468445 633.677307,852.664307 632.652771,854.120667 
	C630.830200,856.711792 628.671753,859.066528 625.760681,862.605957 
	C628.871521,862.814941 630.448364,862.833801 632.000061,863.041260 
	C636.964355,863.704773 638.881531,866.846069 637.394043,871.486816 
	C636.441467,874.458923 636.930298,876.448242 640.683228,877.182922 
	C647.596375,878.536316 654.451233,880.258545 661.221069,882.206909 
	C662.419434,882.551819 663.680542,884.657227 663.885315,886.095825 
	C664.449707,890.060486 666.454895,891.483215 670.030090,890.081116 
	C675.017944,888.124878 680.083862,887.119507 685.366333,888.056580 
	C687.581116,888.449402 689.685364,889.465759 691.839844,890.198608 
	C690.854309,892.072144 689.868835,893.945679 688.407104,896.724609 
	C691.751038,896.210510 695.216614,895.723694 698.664978,895.135376 
	C702.556213,894.471497 706.419312,893.636230 710.318054,893.024475 
	C713.742798,892.487122 716.007385,894.454041 716.424927,897.467163 
	C716.588684,898.648987 714.119873,900.138916 712.954895,901.573669 
	C710.840149,904.178040 708.803894,906.846130 705.969604,910.464661 
	C709.836975,910.808777 712.514221,911.046936 715.443970,911.307617 
	C717.272400,919.279175 721.672424,925.101257 729.929199,927.965881 
	C732.265625,922.617371 736.646484,924.539795 741.065369,924.933411 
	C736.376038,928.329956 738.140442,931.844666 739.958130,935.492554 
	C743.170959,941.940369 741.937012,947.016113 736.177490,950.868774 
	C736.686340,951.653259 737.154541,952.473877 737.716553,953.224121 
	C739.835327,956.052734 739.602722,958.398438 735.882507,959.081665 
	C731.698120,959.850159 730.279480,962.436035 730.007812,966.597656 
	C724.304932,967.062622 718.609924,967.130188 712.495361,966.727905 
	C713.387817,963.211426 712.261963,961.745850 709.084351,962.075623 
	C706.217773,962.373108 703.387085,963.016968 700.403809,963.531677 
	C701.397156,964.859619 702.198608,965.931030 703.000000,967.002441 
	C695.638611,967.065796 688.277283,967.129028 680.457947,967.082458 
	C681.464783,966.315063 682.875305,965.345947 684.408020,965.079346 
	C686.308350,964.748718 688.309937,965.000061 688.947083,965.000061 
	C691.843811,958.883484 694.231934,953.728699 696.743713,948.634888 
	C697.229614,947.649414 698.169006,946.873840 698.951172,946.050903 
	C701.056519,943.835510 703.197876,941.654358 705.308960,939.444336 
	C706.341797,938.363098 707.395691,937.294189 708.341064,936.138672 
	C710.278687,933.770142 715.289001,932.802124 713.364685,928.632385 
	C710.034241,921.415527 704.198853,919.123596 697.796448,921.469360 
	C692.719421,923.329529 694.091797,918.601440 693.249268,916.565125 
	C692.806274,915.494446 694.122742,913.809265 694.227356,912.371216 
	C694.372681,910.372620 694.126160,908.345581 694.047363,906.330688 
	C692.250854,906.825439 690.446655,907.294617 688.660950,907.825623 
	C687.747742,908.097107 686.627441,909.007080 686.010803,908.726746 
	C681.639954,906.739624 679.171448,909.817383 676.420349,912.103271 
	C673.679260,914.380798 671.243164,917.128235 668.232483,918.934875 
	C666.732727,919.834839 664.247009,919.091492 660.903259,919.091492 
	C662.529541,917.032166 663.373962,916.400452 663.582275,915.602661 
	C663.950623,914.191956 664.509277,912.348938 663.910461,911.305176 
	C663.327393,910.288818 661.401306,909.578979 660.051636,909.557373 
	C656.624695,909.502625 653.190430,909.908447 649.228210,910.164062 
	C651.092651,904.736206 647.572632,903.779968 644.326904,903.109619 
	C636.784851,901.552002 632.932434,895.776794 635.396912,888.507324 
	C636.594666,884.974121 635.205688,882.839844 632.601135,881.461182 
	C629.161499,879.640564 625.361389,878.513428 621.801941,876.899109 
	C620.745972,876.420166 619.228455,875.325989 619.204102,874.476990 
	C619.071594,869.852966 615.519226,869.956787 612.557129,869.369629 
	C607.361511,868.339905 602.143311,867.397644 596.902649,866.639038 
	C595.437683,866.427002 593.820007,866.835999 592.346802,867.234863 
	C590.816223,867.649414 589.414001,868.785339 587.889648,868.935059 
	C578.259460,869.881104 574.566650,867.647949 569.856445,858.802429 
	C569.307434,857.771484 567.663757,857.208679 566.419800,856.684753 
	C563.099182,855.286255 561.278137,853.292358 562.309570,849.351013 
	C563.110107,846.291809 564.006592,843.065491 563.780273,839.993103 
	C563.612122,837.710510 562.269836,834.668457 560.464478,833.534363 
	C557.047424,831.387756 552.630859,829.353821 549.073792,832.980713 
	C547.648926,834.433594 547.990356,837.618774 547.464539,840.343262 
	C541.257751,842.854370 535.832031,839.018311 530.221313,837.151978 
	C529.527954,836.921326 529.351013,833.197327 529.934509,831.420349 
	C531.954346,825.269226 531.069641,825.433167 524.974243,823.387024 
	C518.396179,821.179016 517.954651,824.152344 516.744812,828.863037 
	C515.484497,833.770142 511.616638,834.638916 507.368103,831.026733 
	C508.202454,828.883179 508.986450,827.329773 509.770477,825.776367 
	C507.746368,824.853882 505.722260,823.931396 503.698181,823.008850 
	C503.076721,820.950012 502.455292,818.891235 501.791412,816.471863 
M711.191956,950.520813 
	C709.360657,954.478027 712.757385,955.809204 714.846863,957.796997 
	C715.713074,956.849731 716.579346,955.902466 717.445618,954.955261 
	C715.572083,953.371094 713.698547,951.786926 711.191956,950.520813 
M622.631897,850.084961 
	C622.881714,850.659851 623.131531,851.234741 623.381348,851.809631 
	C623.859253,851.330383 624.337097,850.851135 624.814941,850.371948 
	C624.241089,850.121399 623.667297,849.870850 622.631897,850.084961 
z"/>
<path fill="#FC6203" opacity="1.000000" stroke="none" 
	d="
M422.000000,850.000000 
	C421.203522,851.787048 420.407074,853.574097 419.988647,854.512939 
	C417.626099,854.352600 415.391693,853.550171 413.930328,854.284973 
	C412.470673,855.018921 411.784882,857.291809 410.187164,859.782959 
	C410.511475,859.749878 409.362274,860.242554 408.642090,859.880920 
	C403.019623,857.057800 397.455566,859.720398 391.874908,859.856628 
	C387.549652,859.962158 383.221741,859.968628 378.894836,859.996948 
	C373.487396,860.032349 367.472748,858.530945 362.806488,860.402039 
	C354.640839,863.676331 346.381439,861.579346 338.310699,863.028320 
	C336.567841,863.341248 334.646973,862.510315 332.826782,862.597168 
	C331.568451,862.657227 330.254700,863.229004 329.117432,863.849915 
	C325.062103,866.064087 321.296875,869.147888 316.983643,870.441833 
	C313.674713,871.434509 309.612549,869.634033 306.060638,870.191772 
	C303.404724,870.608826 300.897430,872.636597 298.656616,874.375732 
	C298.285217,874.664062 299.350403,878.200256 300.218842,878.424255 
	C302.712708,879.067383 305.831055,879.661499 308.017487,878.705261 
	C316.566315,874.966553 324.657928,878.504822 332.903687,879.514526 
	C335.327576,879.811401 337.702545,880.924561 340.102783,880.934021 
	C366.743622,881.038757 393.385101,881.025513 420.026154,880.950806 
	C422.121674,880.944946 424.294006,880.478455 426.293427,879.813477 
	C430.579193,878.388000 440.213074,881.366943 442.953552,885.516479 
	C438.199646,885.707886 433.399933,885.412292 428.599945,885.408508 
	C380.612488,885.370544 332.625000,885.395874 284.637512,885.364441 
	C274.963593,885.358093 268.099060,880.812622 265.122620,872.670166 
	C260.736786,860.672241 266.976410,849.728394 280.642456,846.547485 
	C281.430664,850.839905 284.415039,849.969482 286.756439,849.974792 
	C306.342072,850.019287 325.927856,850.000000 345.513580,850.000000 
	C371.009064,850.000000 396.504517,850.000000 422.000000,850.000000 
z"/>
<path fill="#FA6703" opacity="1.000000" stroke="none" 
	d="
M230.902573,879.844727 
	C222.647171,888.626526 211.501984,890.673706 202.152695,885.369019 
	C193.226288,880.304260 188.868683,869.917969 191.574509,860.156006 
	C194.490112,849.637268 203.868896,842.486694 214.556870,843.092041 
	C223.192566,843.581116 229.803650,847.828735 233.593155,855.627747 
	C237.645050,863.966797 236.804504,872.082397 230.902573,879.844727 
z"/>
<path fill="#FC6205" opacity="1.000000" stroke="none" 
	d="
M422.468658,850.000000 
	C396.504517,850.000000 371.009064,850.000000 345.513580,850.000000 
	C325.927856,850.000000 306.342072,850.019287 286.756439,849.974792 
	C284.415039,849.969482 281.430664,850.839905 281.010529,846.586548 
	C284.983612,846.067871 288.968262,845.834473 292.953003,845.833008 
	C354.559296,845.810425 416.165558,845.828125 477.771820,845.791748 
	C481.240143,845.789734 484.708252,845.401367 488.588379,845.165405 
	C489.415710,848.657166 487.492035,849.945190 484.324921,849.984375 
	C481.501495,850.019287 478.653381,849.773987 475.861481,850.074036 
	C473.802887,850.295349 471.399139,850.674377 469.879089,851.893311 
	C465.637756,855.294495 460.780151,854.951477 456.765747,853.089905 
	C450.909943,850.374451 445.067780,849.821350 438.883026,849.972961 
	C433.570770,850.103149 428.252777,850.000000 422.468658,850.000000 
z"/>
<path fill="#00002B" opacity="1.000000" stroke="none" 
	d="
M1008.842773,247.302551 
	C955.867249,247.619934 902.759460,247.538391 849.651672,247.535797 
	C762.578247,247.531540 675.504822,247.574585 588.431396,247.614563 
	C583.604370,247.616776 578.777405,247.772659 573.488525,247.788239 
	C574.896912,247.148911 576.766602,246.081863 578.637512,246.079514 
	C647.623718,245.993011 716.610046,246.004944 785.596313,246.003860 
	C858.081909,246.002731 930.567505,245.994919 1003.053101,246.040359 
	C1004.939087,246.041550 1006.824768,246.626419 1008.842773,247.302551 
z"/>
<path fill="#01032B" opacity="1.000000" stroke="none" 
	d="
M670.859009,644.390808 
	C642.590210,644.744263 614.203186,644.739685 585.816345,644.679810 
	C582.834412,644.673523 579.853210,644.341431 576.446655,644.043213 
	C577.595215,643.619080 579.168213,643.047913 580.742432,643.044739 
	C609.204956,642.987427 637.667542,642.982727 666.130005,643.038757 
	C667.667542,643.041809 669.203979,643.676331 670.859009,644.390808 
z"/>
<path fill="#FA6A03" opacity="1.000000" stroke="none" 
	d="
M741.460754,967.105347 
	C742.615173,966.332336 744.221375,965.107239 745.841797,965.088135 
	C759.087708,964.931641 772.336975,965.074951 785.583252,964.934387 
	C788.112549,964.907532 790.625793,963.718445 793.160034,963.660278 
	C794.730896,963.624146 796.327515,964.709351 797.956299,965.662476 
	C793.907288,966.425781 789.817505,967.117188 785.721436,967.156067 
	C771.121765,967.294739 756.520020,967.211548 741.460754,967.105347 
z"/>
<path fill="#FD5E03" opacity="1.000000" stroke="none" 
	d="
M593.195374,967.078918 
	C593.327087,966.363342 593.828735,965.307434 594.380615,965.280518 
	C603.300537,964.844482 612.225952,964.511292 621.152222,964.216553 
	C625.366943,964.077454 629.595398,963.885071 633.797729,964.102478 
	C635.219116,964.176086 636.579041,965.436523 637.983521,966.564331 
	C623.196228,967.055115 608.392456,967.136230 593.195374,967.078918 
z"/>
<path fill="#FD6B02" opacity="1.000000" stroke="none" 
	d="
M869.584351,946.583374 
	C871.537781,942.572754 873.543701,938.256470 876.322754,934.514343 
	C877.642578,932.737183 880.204285,932.282104 882.240356,934.946899 
	C883.089233,936.057922 885.136841,936.252991 887.002747,937.018921 
	C881.562073,940.286621 875.758057,943.400024 869.584351,946.583374 
z"/>
<path fill="#FD6B02" opacity="1.000000" stroke="none" 
	d="
M818.611450,754.925293 
	C821.276550,756.582092 822.179138,765.843506 819.908020,767.160278 
	C818.839478,767.779846 816.282043,767.616516 815.616516,766.807129 
	C813.712097,764.490784 812.430420,761.662415 810.870728,758.605347 
	C813.310242,757.100159 815.782776,756.025085 818.611450,754.925293 
z"/>
<path fill="#FD6602" opacity="1.000000" stroke="none" 
	d="
M849.587280,949.990723 
	C849.364197,951.471497 848.728333,952.942932 848.045410,954.769531 
	C845.249634,956.109253 842.500977,957.093872 839.376038,957.695312 
	C838.999817,956.542236 838.999939,955.772339 839.000000,955.002441 
	C839.144348,948.367188 840.219299,947.836731 849.587280,949.990723 
z"/>
<path fill="#FD5E03" opacity="1.000000" stroke="none" 
	d="
M703.439941,967.110107 
	C702.198608,965.931030 701.397156,964.859619 700.403809,963.531677 
	C703.387085,963.016968 706.217773,962.373108 709.084351,962.075623 
	C712.261963,961.745850 713.387817,963.211426 712.037964,966.619019 
	C709.293274,967.059265 706.586548,967.138550 703.439941,967.110107 
z"/>
<path fill="#FD6302" opacity="1.000000" stroke="none" 
	d="
M503.622009,823.334473 
	C505.722260,823.931396 507.746368,824.853882 509.770477,825.776367 
	C508.986450,827.329773 508.202454,828.883179 507.209229,830.718262 
	C505.960236,830.999756 504.920441,830.999451 503.491028,830.999146 
	C503.201477,829.846924 503.301605,828.694824 503.640015,826.965515 
	C503.929443,826.131836 503.930115,825.875183 503.880371,825.618347 
	C503.768890,824.965576 503.657379,824.312866 503.622009,823.334473 
z"/>
<path fill="#FD7202" opacity="1.000000" stroke="none" 
	d="
M903.551025,926.952515 
	C901.778259,923.847534 903.262695,921.636902 905.994080,920.059326 
	C907.547913,919.161865 909.436340,918.077515 910.087463,921.564941 
	C908.016846,923.583984 905.921265,925.181824 903.551025,926.952515 
z"/>
<path fill="#F16607" opacity="1.000000" stroke="none" 
	d="
M813.334595,964.249878 
	C815.136475,959.167358 817.311584,958.568726 821.998840,962.106323 
	C819.338623,963.108521 816.515991,963.724670 813.334595,964.249878 
z"/>
<path fill="#F56008" opacity="1.000000" stroke="none" 
	d="
M498.786041,838.735657 
	C499.487122,839.717651 499.925995,840.829346 500.364868,841.941040 
	C498.401306,842.470642 496.437683,843.000244 494.230286,843.249512 
	C495.498962,841.601257 497.011414,840.233337 498.786041,838.735657 
z"/>
<path fill="#FD6B02" opacity="1.000000" stroke="none" 
	d="
M387.570099,761.892456 
	C385.891052,765.961487 384.266388,766.138977 381.046448,762.368408 
	C383.046600,761.931519 385.093170,761.865723 387.570099,761.892456 
z"/>
<path fill="#EF6C06" opacity="1.000000" stroke="none" 
	d="
M831.731323,747.003357 
	C832.121826,748.060364 832.226379,749.138184 831.844238,750.745605 
	C830.238342,751.516724 829.119202,751.758362 827.993530,751.595154 
	C827.949524,750.651306 827.911987,750.112244 827.874390,749.573242 
	C827.905518,749.278259 828.059998,749.078796 828.794434,748.881714 
	C829.497375,748.538940 829.743652,748.289185 829.989929,748.039490 
	C830.475037,747.701050 830.960144,747.362610 831.731323,747.003357 
z"/>
<path fill="#F16607" opacity="1.000000" stroke="none" 
	d="
M838.630737,955.002808 
	C838.999939,955.772339 838.999817,956.542236 838.998291,957.697266 
	C838.213623,958.399414 837.430420,958.716492 836.328125,959.020142 
	C835.630676,957.036926 834.311218,954.537720 838.630737,955.002808 
z"/>
<path fill="#FD6B02" opacity="1.000000" stroke="none" 
	d="
M897.436035,931.273193 
	C896.844849,928.514771 897.668457,926.892029 901.075012,928.256592 
	C900.078857,929.455200 898.911865,930.323059 897.436035,931.273193 
z"/>
<path fill="#FD6B02" opacity="1.000000" stroke="none" 
	d="
M460.605621,761.900574 
	C460.156525,764.764465 458.808533,764.680725 457.060883,762.335327 
	C458.071167,761.927307 459.141815,761.866577 460.605621,761.900574 
z"/>
<path fill="#EF6C06" opacity="1.000000" stroke="none" 
	d="
M834.775269,744.199951 
	C834.297119,745.070251 833.552124,746.020569 832.378723,746.905396 
	C832.803040,745.986633 833.655701,745.133301 834.775269,744.199951 
z"/>
<path fill="#FD6B02" opacity="1.000000" stroke="none" 
	d="
M467.630615,761.888672 
	C467.033386,762.208252 466.066772,762.434448 465.050476,762.325562 
	C465.754272,761.925415 466.507751,761.860352 467.630615,761.888672 
z"/>
<path fill="#FD7202" opacity="1.000000" stroke="none" 
	d="
M827.549194,749.686401 
	C827.911987,750.112244 827.949524,750.651306 827.993530,751.595154 
	C827.139404,751.980042 826.278870,751.960083 824.987671,751.899353 
	C825.446045,751.172241 826.335083,750.485962 827.549194,749.686401 
z"/>
<path fill="#FD7202" opacity="1.000000" stroke="none" 
	d="
M823.708740,752.038818 
	C823.740967,752.280396 823.484253,752.533264 822.957336,752.842163 
	C822.931396,752.615479 823.175598,752.332764 823.708740,752.038818 
z"/>
<path fill="#F16607" opacity="1.000000" stroke="none" 
	d="
M835.352417,959.310303 
	C835.367432,959.110657 835.539124,959.043579 835.865234,959.011230 
	C835.927246,959.259827 835.757080,959.392090 835.352417,959.310303 
z"/>
<path fill="#FD7202" opacity="1.000000" stroke="none" 
	d="
M829.709900,748.058350 
	C829.743652,748.289185 829.497375,748.538940 828.990845,748.856079 
	C828.963623,748.641357 829.196777,748.359314 829.709900,748.058350 
z"/>
<path fill="#F16607" opacity="1.000000" stroke="none" 
	d="
M828.377686,961.172729 
	C828.348755,961.064331 828.550110,961.010559 828.599365,961.007080 
	C828.648682,961.003662 828.406677,961.281189 828.377686,961.172729 
z"/>
<path fill="#FD5E03" opacity="1.000000" stroke="none" 
	d="
M503.741150,825.786133 
	C503.930115,825.875183 503.929443,826.131836 503.819214,826.569397 
	C503.515961,826.523254 503.463226,826.257751 503.741150,825.786133 
z"/>
<path fill="#F16607" opacity="1.000000" stroke="none" 
	d="
M828.044312,957.323975 
	C828.639587,957.456055 829.276794,957.907227 829.954529,958.677979 
	C829.358765,958.546082 828.722473,958.094604 828.044312,957.323975 
z"/>
<path fill="#FC6203" opacity="1.000000" stroke="none" 
	d="
M420.584137,858.096069 
	C419.376709,858.983093 418.147430,859.526001 416.918152,860.068848 
	C416.736176,859.470886 416.554230,858.872925 416.372253,858.274902 
	C417.768951,858.100647 419.165619,857.926331 420.584137,858.096069 
z"/>
<path fill="#FD6602" opacity="1.000000" stroke="none" 
	d="
M548.332275,785.635132 
	C547.342041,789.452148 547.059082,789.549561 540.622681,788.137085 
	C542.464783,785.984009 544.031982,784.152222 545.599243,782.320435 
	C546.464294,783.309143 547.329346,784.297913 548.332275,785.635132 
z"/>
<path fill="#FD6602" opacity="1.000000" stroke="none" 
	d="
M668.349487,852.964355 
	C667.120728,853.898010 666.115051,854.513184 663.867188,855.888306 
	C665.213257,851.990356 666.052917,849.558838 666.892578,847.127380 
	C667.452576,847.148315 668.012573,847.169250 668.572571,847.190186 
	C668.572571,849.008728 668.572571,850.827332 668.349487,852.964355 
z"/>
<path fill="#FD6B02" opacity="1.000000" stroke="none" 
	d="
M774.447144,803.591309 
	C775.849731,804.373718 777.362488,804.519470 778.189941,805.348816 
	C779.096802,806.257690 779.787415,807.808838 779.753357,809.057800 
	C779.735168,809.726379 778.077332,810.617310 777.016357,810.944885 
	C772.182495,812.437561 770.441284,808.660767 768.482300,805.551575 
	C768.110779,804.961853 768.358765,803.430298 768.886658,802.928528 
	C770.491821,801.402893 772.373901,800.168640 774.255310,798.739624 
	C774.255310,799.859009 774.255310,801.557495 774.447144,803.591309 
z"/>
<path fill="#FD6B02" opacity="1.000000" stroke="none" 
	d="
M846.068237,939.047485 
	C846.757019,940.178894 847.244690,941.597534 847.732361,943.016113 
	C846.886963,943.159424 846.041565,943.302734 845.196167,943.446106 
	C845.419800,942.075623 845.643494,940.705200 846.068237,939.047485 
z"/>
<path fill="#FD6602" opacity="1.000000" stroke="none" 
	d="
M631.375000,766.000000 
	C631.966431,765.777527 632.932861,765.555054 633.949646,765.666321 
	C633.250000,766.000000 632.500000,766.000000 631.375000,766.000000 
z"/>
<path fill="#FD6B02" opacity="1.000000" stroke="none" 
	d="
M753.303955,804.523560 
	C752.551575,804.529358 752.017700,804.324768 751.483765,804.120178 
	C751.618164,803.846680 751.752563,803.573181 751.886841,803.299622 
	C752.432007,803.637451 752.977173,803.975281 753.303955,804.523560 
z"/>
<path fill="#FD7202" opacity="1.000000" stroke="none" 
	d="
M828.000000,752.400940 
	C829.119202,751.758362 830.238342,751.516724 831.677551,751.135132 
	C832.048218,751.322510 832.109497,751.648743 832.148010,751.977539 
	C832.369751,753.866333 832.694214,755.756348 832.684204,757.644409 
	C832.682739,757.918701 830.372498,758.528259 830.310730,758.402649 
	C829.421753,756.594116 828.735107,754.686096 828.000000,752.400940 
z"/>
<path fill="#FD6B02" opacity="1.000000" stroke="none" 
	d="
M829.064331,776.923706 
	C829.608582,775.778748 830.155029,774.982788 830.701477,774.186829 
	C831.112061,774.372375 831.522644,774.557861 831.933289,774.743408 
	C831.503052,775.977295 831.072815,777.211182 830.642578,778.445068 
	C830.117249,778.054260 829.591919,777.663452 829.064331,776.923706 
z"/>
<path fill="#FD7202" opacity="1.000000" stroke="none" 
	d="
M903.327515,829.512573 
	C904.022583,829.903076 904.774780,830.477295 904.730347,830.981323 
	C904.653748,831.849304 904.081238,832.673401 903.716797,833.515930 
	C903.203064,833.134766 902.689270,832.753601 902.175537,832.372437 
	C902.459045,831.469849 902.742615,830.567322 903.327515,829.512573 
z"/>
<path fill="#FD5E03" opacity="1.000000" stroke="none" 
	d="
M711.508545,950.361755 
	C713.698547,951.786926 715.572083,953.371094 717.445618,954.955261 
	C716.579346,955.902466 715.713074,956.849731 714.846863,957.796997 
	C712.757385,955.809204 709.360657,954.478027 711.508545,950.361755 
z"/>
<path fill="#FD5E03" opacity="1.000000" stroke="none" 
	d="
M622.862671,849.852661 
	C623.667297,849.870850 624.241089,850.121399 624.814941,850.371948 
	C624.337097,850.851135 623.859253,851.330383 623.381348,851.809631 
	C623.131531,851.234741 622.881714,850.659851 622.862671,849.852661 
z"/>
</svg>